<svg width="24" height="24" viewBox="0 0 24 24" fill="none" xmlns="http://www.w3.org/2000/svg">
<path opacity="0.4" fill-rule="evenodd" clip-rule="evenodd" d="M2.02147 12.2234C2.05959 12.3897 2.12769 12.4975 2.26387 12.7132C3.38928 14.4952 6.73915 19 11.8442 19C16.9492 19 20.299 14.4952 21.4244 12.7132C21.5606 12.4975 21.6287 12.3897 21.6668 12.2234C21.6955 12.0985 21.6955 11.9015 21.6668 11.7766C21.6287 11.6103 21.5606 11.5025 21.4244 11.2868C20.299 9.50484 16.9492 5 11.8442 5C6.73915 5 3.38928 9.50484 2.26387 11.2868C2.12769 11.5025 2.05959 11.6103 2.02147 11.7766C1.99284 11.9015 1.99284 12.0985 2.02147 12.2234ZM11.8438 16C14.0529 16 15.8438 14.2091 15.8438 12C15.8438 9.79086 14.0529 8 11.8438 8C9.63461 8 7.84375 9.79086 7.84375 12C7.84375 14.2091 9.63461 16 11.8438 16Z" fill="#0C1D59"/>
<path d="M11.8385 9C10.1888 9 8.84375 10.345 8.84375 12.0053C8.84375 13.655 10.1888 15 11.8385 15C13.4882 15 14.8438 13.655 14.8438 12.0053C14.8438 10.3555 13.4882 9 11.8385 9Z" fill="#0C1D59"/>
</svg>
