<svg width="979" height="738" viewBox="0 0 979 738" fill="none" xmlns="http://www.w3.org/2000/svg">
<g clip-path="url(#clip0_14_221)">
<g clip-path="url(#clip1_14_221)">
<path d="M793.628 267.325C741.87 223.298 681.244 200 681.244 200L623 233.702C623 233.702 683.494 256.973 735.252 300.947L793.628 267.325Z" fill="#E9E9F0"/>
<path d="M623 233.649C633.166 237.726 643.121 242.359 652.89 247.257C662.659 252.155 672.295 257.45 681.694 263.142C686.433 265.789 691.039 268.887 695.672 271.772C700.305 274.658 704.859 277.755 709.28 280.985C718.282 287.207 726.859 294.064 735.278 301.026L728.898 295.943C726.753 294.249 724.582 292.608 722.359 291.019L715.661 286.121L708.936 281.409C704.515 278.232 699.855 275.373 695.302 272.355C690.748 269.337 686.009 266.557 681.27 263.856C671.916 258.191 662.376 252.896 652.651 247.972C647.78 245.483 642.873 243.074 637.932 240.744C633.007 238.335 628.057 236.005 623.026 233.861L623 233.649Z" fill="#D6D3DE"/>
<path d="M666.233 247.575H665.994C654.849 241.724 645.477 237.382 639.52 234.761C639.415 234.705 639.336 234.611 639.296 234.499C639.257 234.387 639.261 234.265 639.307 234.155C639.353 234.046 639.439 233.958 639.547 233.908C639.655 233.859 639.777 233.851 639.891 233.887C645.821 236.535 655.219 240.877 666.365 246.727C666.477 246.784 666.562 246.883 666.601 247.002C666.641 247.121 666.632 247.25 666.577 247.363C666.495 247.476 666.371 247.552 666.233 247.575Z" fill="#404758"/>
<path d="M669.463 245.933C669.349 245.957 669.232 245.957 669.118 245.933C657.999 240.109 648.627 235.767 642.644 233.146C642.476 233.06 642.347 232.914 642.284 232.737C642.22 232.56 642.225 232.366 642.3 232.193C642.334 232.106 642.386 232.027 642.452 231.961C642.518 231.895 642.597 231.843 642.684 231.809C642.77 231.774 642.863 231.757 642.956 231.76C643.05 231.762 643.142 231.783 643.226 231.822C649.157 234.47 658.582 238.811 669.701 244.662C669.785 244.707 669.859 244.768 669.92 244.841C669.98 244.915 670.025 245 670.052 245.091C670.08 245.182 670.088 245.278 670.078 245.372C670.067 245.467 670.038 245.559 669.992 245.642C669.93 245.726 669.851 245.796 669.76 245.846C669.668 245.897 669.567 245.926 669.463 245.933Z" fill="#404758"/>
<path d="M672.692 244.053C672.588 244.077 672.479 244.077 672.375 244.053C661.229 238.229 651.857 233.887 645.9 231.266C645.813 231.229 645.733 231.174 645.667 231.106C645.601 231.038 645.549 230.957 645.514 230.868C645.48 230.779 645.463 230.684 645.466 230.589C645.469 230.494 645.49 230.4 645.53 230.313C645.57 230.228 645.626 230.151 645.695 230.088C645.765 230.024 645.846 229.975 645.935 229.943C646.023 229.911 646.117 229.897 646.211 229.901C646.305 229.906 646.398 229.929 646.483 229.969C652.413 232.616 661.811 236.932 672.957 242.783C673.122 242.877 673.244 243.032 673.299 243.214C673.353 243.397 673.335 243.593 673.248 243.762C673.185 243.851 673.102 243.924 673.006 243.975C672.909 244.026 672.802 244.052 672.692 244.053Z" fill="#404758"/>
<path d="M679.179 240.082H678.967C667.821 234.231 658.449 229.89 652.493 227.269C652.436 227.246 652.384 227.211 652.341 227.168C652.298 227.124 652.265 227.072 652.242 227.015C652.22 226.958 652.21 226.898 652.212 226.836C652.214 226.775 652.228 226.715 652.254 226.66C652.277 226.6 652.313 226.545 652.357 226.499C652.402 226.453 652.456 226.416 652.515 226.392C652.575 226.367 652.639 226.354 652.703 226.355C652.767 226.356 652.831 226.369 652.89 226.395C658.82 229.042 668.218 233.384 679.364 239.235C679.42 239.263 679.469 239.302 679.509 239.349C679.549 239.397 679.579 239.452 679.596 239.512C679.613 239.572 679.618 239.635 679.61 239.696C679.602 239.758 679.581 239.817 679.549 239.87C679.512 239.935 679.458 239.989 679.393 240.026C679.328 240.064 679.254 240.083 679.179 240.082Z" fill="#404758"/>
<path d="M685.665 236.349H685.453C674.307 230.499 664.909 226.157 658.979 223.536C658.863 223.483 658.773 223.387 658.728 223.267C658.683 223.148 658.688 223.016 658.741 222.9C658.793 222.785 658.89 222.694 659.009 222.65C659.128 222.605 659.26 222.609 659.376 222.662C665.306 225.31 674.705 229.651 685.85 235.502C685.958 235.564 686.037 235.664 686.071 235.783C686.106 235.901 686.093 236.028 686.036 236.138C685.995 236.199 685.94 236.251 685.875 236.287C685.811 236.324 685.739 236.345 685.665 236.349Z" fill="#404758"/>
<path d="M692.151 232.59C692.083 232.617 692.008 232.617 691.939 232.59C680.794 226.766 671.395 222.397 665.465 219.803C665.349 219.75 665.259 219.654 665.214 219.534C665.17 219.415 665.174 219.283 665.227 219.167C665.279 219.052 665.376 218.961 665.495 218.917C665.614 218.872 665.746 218.877 665.862 218.929C671.766 221.577 681.191 225.892 692.337 231.743C692.45 231.805 692.536 231.908 692.575 232.031C692.615 232.155 692.605 232.288 692.548 232.405C692.503 232.467 692.443 232.516 692.374 232.549C692.304 232.581 692.228 232.595 692.151 232.59Z" fill="#404758"/>
<path d="M698.638 228.857H698.399C687.254 223.006 677.882 218.664 671.925 216.043C671.809 215.991 671.719 215.894 671.674 215.775C671.629 215.656 671.634 215.524 671.687 215.408C671.739 215.292 671.836 215.202 671.955 215.157C672.074 215.113 672.206 215.117 672.322 215.17C678.226 217.817 687.624 222.133 698.796 228.01C698.908 228.067 698.993 228.165 699.033 228.284C699.072 228.403 699.064 228.533 699.008 228.645C698.966 228.706 698.911 228.756 698.846 228.792C698.782 228.829 698.711 228.851 698.638 228.857Z" fill="#404758"/>
<path d="M676.214 242.2C676.1 242.225 675.983 242.225 675.869 242.2C664.75 236.349 655.378 232.008 649.395 229.387C649.229 229.306 649.101 229.165 649.037 228.992C648.973 228.82 648.978 228.629 649.051 228.46C649.085 228.373 649.137 228.295 649.203 228.229C649.269 228.163 649.348 228.111 649.435 228.076C649.521 228.041 649.614 228.025 649.707 228.027C649.801 228.029 649.893 228.051 649.977 228.089C655.908 230.737 665.333 235.079 676.452 240.93C676.615 241.019 676.737 241.169 676.791 241.347C676.845 241.525 676.828 241.717 676.743 241.883C676.683 241.971 676.604 242.044 676.513 242.099C676.422 242.154 676.32 242.189 676.214 242.2Z" fill="#404758"/>
<path d="M682.7 238.441C682.587 238.465 682.469 238.465 682.356 238.441C671.237 232.617 661.838 228.275 655.881 225.654C655.706 225.577 655.568 225.433 655.499 225.254C655.429 225.075 655.433 224.876 655.511 224.701C655.588 224.525 655.732 224.387 655.91 224.318C656.089 224.248 656.288 224.253 656.464 224.33C662.394 226.977 671.819 231.319 682.938 237.17C683.08 237.243 683.193 237.361 683.26 237.506C683.327 237.651 683.343 237.814 683.307 237.969C683.27 238.125 683.183 238.263 683.058 238.363C682.934 238.463 682.78 238.518 682.621 238.52L682.7 238.441Z" fill="#404758"/>
<path d="M689.186 234.708C689.073 234.735 688.955 234.735 688.842 234.708C677.696 228.857 668.324 224.515 662.367 221.921C662.192 221.844 662.054 221.7 661.985 221.521C661.915 221.342 661.92 221.143 661.997 220.968C662.074 220.792 662.218 220.655 662.397 220.585C662.575 220.516 662.774 220.52 662.95 220.597C668.88 223.245 678.279 227.586 689.424 233.437C689.51 233.477 689.586 233.533 689.649 233.603C689.712 233.673 689.76 233.756 689.79 233.845C689.819 233.934 689.831 234.029 689.822 234.123C689.814 234.216 689.787 234.308 689.742 234.39C689.68 234.483 689.598 234.56 689.502 234.615C689.405 234.67 689.297 234.702 689.186 234.708Z" fill="#404758"/>
<path d="M695.646 230.975C695.543 231.009 695.431 231.009 695.328 230.975C684.209 225.151 674.81 220.809 668.854 218.188C668.739 218.152 668.634 218.088 668.55 218.002C668.467 217.915 668.406 217.809 668.374 217.693C668.343 217.577 668.341 217.454 668.369 217.337C668.397 217.22 668.455 217.112 668.536 217.023C668.576 216.938 668.632 216.861 668.702 216.798C668.771 216.734 668.852 216.685 668.941 216.653C669.03 216.621 669.124 216.607 669.218 216.611C669.312 216.616 669.404 216.639 669.489 216.679C675.419 219.326 684.818 223.642 695.963 229.492C696.128 229.587 696.252 229.74 696.311 229.921C696.37 230.102 696.359 230.298 696.281 230.472C696.233 230.607 696.148 230.725 696.035 230.814C695.923 230.903 695.788 230.959 695.646 230.975Z" fill="#404758"/>
<path d="M705.071 225.336C704.958 225.363 704.84 225.363 704.727 225.336C693.581 219.512 684.209 215.17 678.252 212.549C678.165 212.511 678.085 212.457 678.019 212.389C677.953 212.32 677.901 212.239 677.866 212.15C677.832 212.062 677.815 211.967 677.818 211.871C677.821 211.776 677.842 211.683 677.882 211.596C677.962 211.423 678.107 211.289 678.284 211.22C678.461 211.151 678.659 211.153 678.835 211.225C684.765 213.873 694.163 218.214 705.309 224.065C705.451 224.138 705.564 224.257 705.631 224.401C705.698 224.546 705.714 224.709 705.678 224.864C705.641 225.02 705.554 225.158 705.429 225.258C705.305 225.358 705.151 225.413 704.991 225.415L705.071 225.336Z" fill="#404758"/>
<path d="M708.354 223.245H708.142C696.97 217.394 687.598 213.052 681.667 210.431C681.61 210.405 681.558 210.368 681.515 210.322C681.472 210.276 681.439 210.222 681.417 210.163C681.395 210.104 681.384 210.041 681.386 209.978C681.389 209.915 681.403 209.853 681.429 209.796C681.455 209.738 681.492 209.687 681.538 209.644C681.584 209.6 681.638 209.567 681.697 209.545C681.756 209.523 681.819 209.512 681.882 209.515C681.945 209.517 682.007 209.531 682.065 209.557C687.968 212.205 697.367 216.52 708.539 222.397C708.597 222.423 708.649 222.46 708.692 222.506C708.734 222.553 708.767 222.608 708.787 222.668C708.807 222.728 708.814 222.791 708.808 222.854C708.801 222.917 708.782 222.978 708.751 223.033C708.707 223.098 708.648 223.152 708.579 223.189C708.509 223.225 708.432 223.245 708.354 223.245Z" fill="#404758"/>
<path d="M711.61 221.365H711.372C700.226 215.514 690.854 211.172 684.897 208.551C684.838 208.531 684.784 208.498 684.738 208.456C684.692 208.414 684.656 208.362 684.631 208.305C684.606 208.248 684.593 208.186 684.593 208.123C684.594 208.061 684.607 207.999 684.632 207.942C684.656 207.882 684.691 207.828 684.736 207.782C684.781 207.735 684.834 207.699 684.894 207.674C684.953 207.649 685.017 207.637 685.081 207.638C685.145 207.638 685.209 207.652 685.268 207.678C691.198 210.325 700.597 214.667 711.742 220.518C711.798 220.545 711.847 220.584 711.887 220.632C711.927 220.68 711.957 220.735 711.974 220.795C711.992 220.854 711.996 220.917 711.988 220.979C711.98 221.04 711.96 221.1 711.928 221.153C711.892 221.208 711.846 221.256 711.791 221.292C711.736 221.329 711.675 221.353 711.61 221.365Z" fill="#404758"/>
<path d="M722.464 241.644C728.13 244.901 726.568 248.713 721.008 251.916L718.123 253.584L726.7 258.535L722.014 261.182L697.446 247.019L704.7 242.809C710.895 239.315 717.17 238.573 722.464 241.644ZM717.567 244.477C716.112 243.651 714.455 243.25 712.784 243.32C711.113 243.39 709.495 243.929 708.115 244.874L705.468 246.33L714.496 251.625L717.143 250.169C720.267 248.289 721.167 246.542 717.567 244.477Z" fill="#404758"/>
<path d="M732.869 271.958C735.516 273.467 735.913 275.426 735.675 280.827L742.294 277.014L744.306 278.523L734.669 284.083L732.498 282.839C732.498 276.67 732.26 275.108 730.063 273.837C729.382 273.447 728.61 273.242 727.825 273.242C727.041 273.242 726.269 273.447 725.588 273.837C725.087 274.048 724.676 274.43 724.429 274.914C724.182 275.399 724.114 275.955 724.238 276.485L721.008 276.697C720.664 275.055 721.379 273.599 723.497 272.355C724.897 271.498 726.492 271.012 728.131 270.943C729.771 270.873 731.402 271.222 732.869 271.958Z" fill="#404758"/>
<path d="M742.347 264.306L736.549 267.669L740.388 269.866C740.822 269.164 741.434 268.588 742.162 268.198C743.627 267.437 745.265 267.066 746.916 267.122C748.567 267.177 750.175 267.657 751.586 268.516C754.763 270.343 754.684 272.937 751.189 274.949C749.034 276.116 746.592 276.648 744.147 276.485V274.631C745.733 274.756 747.322 274.425 748.727 273.678C750.474 272.672 750.448 271.428 748.436 270.263C747.663 269.735 746.758 269.432 745.822 269.39C744.887 269.348 743.958 269.568 743.141 270.025C742.512 270.362 741.996 270.878 741.659 271.507L739.567 272.699L731.625 268.039L740.573 262.744L742.347 264.306Z" fill="#404758"/>
<path d="M764.135 260.997C767.365 262.877 767.577 265.498 764.453 267.298C760.482 269.575 755.796 268.754 751.375 266.186C746.212 263.194 745.206 259.832 749.124 257.555C750.475 256.813 751.96 256.345 753.492 256.179L754.207 257.873C753.205 258 752.235 258.315 751.348 258.8C749.389 259.938 750.024 261.712 752.963 263.592C752.886 262.97 753.018 262.341 753.339 261.804C753.661 261.266 754.153 260.852 754.737 260.626C756.205 259.88 757.839 259.522 759.484 259.587C761.13 259.652 762.731 260.137 764.135 260.997ZM761.197 262.744C760.489 262.187 759.635 261.846 758.738 261.762C757.842 261.677 756.939 261.853 756.14 262.268C755.69 262.485 755.33 262.853 755.122 263.307C754.914 263.761 754.872 264.274 755.002 264.756C758.364 266.636 760.482 267.06 762.256 266.027C764.029 264.995 763.315 263.909 761.197 262.744Z" fill="#404758"/>
</g>
<g clip-path="url(#clip2_14_221)">
<path d="M898.02 318.071V346.316L839.55 380.03V351.832L898.02 318.071Z" fill="#5B5F75"/>
<path d="M839.55 351.833V380.03L799.328 356.831V328.633L839.55 351.833Z" fill="#232B3F"/>
<path d="M903.349 86.3116L839.55 123.138L794 96.8268L857.799 60L903.349 86.3116Z" fill="#00CE7C"/>
<path d="M896.983 114.274V187.927L887.882 158.126V138.463V119.555L896.983 114.274Z" fill="#B2B2BD"/>
<path d="M845.916 182.269V217.398L896.936 187.927V114.273L887.788 119.507L845.869 143.744L845.916 182.269ZM903.349 295.012V323.305L839.55 360.131V123.138L903.349 86.3115V295.012Z" fill="#00CE7C"/>
<path d="M896.983 187.927L845.963 217.398V182.316L887.883 158.126L896.983 187.927Z" fill="#F0F0F7"/>
<path d="M887.883 119.555V158.126L845.963 182.316V143.745L883.309 122.148L887.883 119.555Z" fill="#D6D3DE"/>
<path d="M840.069 331.839V359.896L794.518 333.584V305.528V96.8268L840.069 123.138V331.839Z" fill="#00814D"/>
<path d="M896.936 226.499V236.448L845.916 265.919V255.97L896.936 226.499ZM894.625 235.269V230.554L879.112 239.513V244.228L894.625 235.269ZM863.598 253.187V248.472L848.085 257.384V262.382L863.598 253.187Z" fill="#F0F0F7"/>
<path d="M894.72 230.318V235.269L879.206 244.228V239.277L894.72 230.318Z" fill="#5B5F75"/>
<path d="M890.334 185.145L847.614 209.806L845.963 204.242V188.304L884.487 166.095L890.334 185.145Z" fill="#B2B2BD"/>
<path d="M883.309 122.148V155.156L845.963 176.752V143.744L883.309 122.148Z" fill="#232B3F"/>
<path d="M863.693 248.236V253.187L848.226 262.147V257.195L863.693 248.236Z" fill="#5B5F75"/>
<path d="M839.55 123.138L847.472 118.376L855.394 113.708L871.284 104.418L887.269 95.2706L895.285 90.7439L903.349 86.3115L895.474 91.074L887.552 95.7422L871.614 105.031L855.629 114.179L847.613 118.706L839.55 123.138Z" fill="white"/>
<path d="M831.675 118.659L839.597 113.943L847.519 109.322L863.457 100.033L879.442 90.8855L887.411 86.3116L895.474 81.832L887.552 86.5002L879.583 91.1684L863.693 100.41L847.708 109.558L839.691 114.132L831.675 118.659Z" fill="#04EE91"/>
<path d="M831.676 118.659L831.817 177.836L831.911 237.014L831.817 296.239L831.676 355.416L831.534 296.239L831.44 237.014L831.534 177.836L831.676 118.659Z" fill="#992C00"/>
<path d="M896.983 187.927C892.834 190.521 888.59 193.02 884.393 195.519L871.662 202.969L858.883 210.231C854.592 212.636 850.301 214.946 845.963 217.398C850.16 214.805 854.356 212.258 858.6 209.759L871.332 202.356L884.11 195.047C888.401 192.643 892.692 190.332 896.983 187.927Z" fill="white"/>
<path d="M843.228 228.149C843.188 228.043 843.188 227.925 843.228 227.819V137.426C843.203 137.374 843.19 137.318 843.19 137.261C843.19 137.204 843.203 137.147 843.228 137.096L899.812 104.513C899.864 104.466 899.931 104.441 900.001 104.441C900.07 104.441 900.137 104.466 900.189 104.513C900.21 104.557 900.221 104.605 900.221 104.654C900.221 104.703 900.21 104.751 900.189 104.796V195.189C900.226 195.279 900.226 195.381 900.189 195.472L843.605 228.102L843.228 228.149ZM843.558 137.614V227.206L899.341 194.953V105.361L843.558 137.614Z" fill="#04EE91"/>
</g>
<g clip-path="url(#clip3_14_221)">
<path d="M60.6065 364.836L11.7924 336.563L0 329.739L373.262 114.257L624.331 259.23L673.775 287.819L685.567 294.642L312.305 510.159L60.6065 364.836Z" fill="#27366B"/>
<path d="M554.486 130.878V258.46L493.075 223.013L334.35 211.99V15.8941L554.486 130.878Z" fill="#0C1D59"/>
<path d="M554.486 296.637L334.35 217.029V178.503H334.385L493.075 223.013L521.838 239.634H521.873L554.486 258.46V296.637Z" fill="#122876"/>
<path d="M486.846 264.759L492.97 261.155L521.769 277.776L554.381 296.602L548.503 300.346L486.846 264.759Z" fill="#00CE7C"/>
<path d="M492.97 261.154L486.846 264.759L339.459 223.398L345.583 219.829L492.97 261.154Z" fill="#00814D"/>
<path d="M435.023 365.501L315.664 434.401L283.087 415.575L283.052 415.54L254.253 398.919L373.612 330.054H373.647L402.41 346.675L435.023 365.501Z" fill="white" fill-opacity="0.05"/>
<path d="M373.612 330.054L486.846 264.759L548.503 300.346L435.023 365.501L402.41 346.675L373.647 330.054H373.612Z" fill="white" fill-opacity="0.05"/>
<path d="M590.878 124.895V275.676L554.486 296.672V130.879L590.878 124.895Z" fill="#253A88"/>
<path d="M578.316 241.384L581.815 243.378C579.751 242.469 576.322 244.358 574.292 248.452C573.032 247.683 571.738 246.948 570.443 246.213C571.478 243.916 573.34 242.093 575.657 241.104C576.457 240.8 577.341 240.8 578.141 241.104L578.316 241.384Z" fill="#D6D3DE"/>
<path d="M578.316 255.836V297.581L567.224 303.985V259.965L574.222 255.871C574.76 256.159 575.361 256.309 575.972 256.309C576.582 256.309 577.183 256.159 577.721 255.871L578.316 255.836Z" fill="#00CE7C"/>
<path d="M578.316 233.931V241.384H578.141C577.341 241.08 576.457 241.08 575.657 241.384C573.339 242.373 571.478 244.196 570.443 246.493L567.224 248.347V240.334L578.316 233.931Z" fill="#00CE7C"/>
<path d="M578.316 233.93L567.224 240.369L554.521 233.021L565.614 226.617L578.316 233.93Z" fill="#00CE7C"/>
<path d="M574.292 248.452L480.198 302.76L476.314 300.521L554.486 255.416L567.223 248.067L570.443 246.213C571.737 246.948 573.032 247.682 574.292 248.452Z" fill="#E9E9F0"/>
<path d="M567.224 259.965V303.985L554.521 296.637V267.313L567.224 259.965Z" fill="#00814D"/>
<path d="M581.815 243.378C582.416 243.726 582.899 244.244 583.205 244.867C583.51 245.49 583.623 246.19 583.53 246.878C583.396 248.979 582.681 251.002 581.465 252.721C580.724 254.04 579.634 255.129 578.316 255.871L577.931 256.046C577.393 256.334 576.792 256.484 576.181 256.484C575.571 256.484 574.97 256.334 574.432 256.046L567.433 260.14L554.696 267.488L480.198 310.179V302.76L574.292 248.452C576.321 244.358 579.75 242.469 581.815 243.378Z" fill="#E9E9F0"/>
<path d="M490.136 297.057L488.141 305.63L481.947 309.199L483.942 300.626L490.136 297.057Z" fill="#00CE7C"/>
<path d="M501.473 290.513L499.478 299.086L493.285 302.655L495.244 294.082L501.473 290.513Z" fill="#00CE7C"/>
<path d="M512.776 283.969L510.816 292.543L504.587 296.112L506.582 287.539L512.776 283.969Z" fill="#00CE7C"/>
<path d="M524.113 277.426L522.154 285.999L515.925 289.568L517.919 280.995L524.113 277.426Z" fill="#00CE7C"/>
<path d="M535.451 270.882L533.456 279.455L527.262 283.025L529.257 274.452L535.451 270.882Z" fill="#00CE7C"/>
<path d="M546.788 264.339L544.793 272.912L538.6 276.481L540.594 267.908L546.788 264.339Z" fill="#00CE7C"/>
<path d="M558.126 257.795L556.131 266.368L549.938 269.938L551.897 261.365L558.126 257.795Z" fill="#00CE7C"/>
<path d="M569.463 251.252L567.468 259.825L561.24 263.394L563.234 254.821L569.463 251.252Z" fill="#00CE7C"/>
<path d="M567.224 240.369V248.068L554.521 255.416V233.021L567.224 240.369Z" fill="#00814D"/>
<path d="M480.198 302.76V310.179L476.349 307.939V300.521L480.198 302.76Z" fill="#D6D3DE"/>
<path d="M567.224 240.334C568.884 239.023 570.652 237.852 572.507 236.835C574.351 235.721 576.296 234.784 578.316 234.036C576.663 235.357 574.894 236.528 573.032 237.535C571.182 238.636 569.238 239.573 567.224 240.334Z" fill="white"/>
<path d="M480.198 302.76C487.931 298.071 495.734 293.452 503.537 288.763L527.017 275.081L550.602 261.574L562.429 254.926L574.292 248.347L562.674 255.346L550.987 262.344L527.507 276.026L503.922 289.673C496.049 293.977 488.246 298.421 480.198 302.76Z" fill="white"/>
<path d="M315.77 295.202V434.401L279.378 455.396V316.197L315.77 295.202Z" fill="#253A88"/>
<path d="M279.378 316.197V455.431L59.2417 328.305V189.106L279.378 316.197Z" fill="#122876"/>
<path d="M605.12 125.35V145.015L293.69 324.84V305.175L605.12 125.35Z" fill="#3D5198"/>
<path d="M605.12 125.21L293.689 305.035L59.2417 169.685L370.672 -10.14L605.12 125.21ZM579.541 130.109L588.079 125.21L370.707 -0.307155L76.3179 169.685L84.821 174.619L293.689 295.167L579.541 130.109Z" fill="#00145A"/>
<path d="M588.079 125.21L579.541 130.109L370.707 9.73559V-0.132233L588.079 125.21Z" fill="#2F448D"/>
<path d="M579.541 130.249L293.69 295.307L84.8211 174.759L370.707 9.7356L579.541 130.249Z" fill="#27366B"/>
<path d="M370.707 -0.167084V9.73566L84.8209 174.794L76.3179 169.86L370.707 -0.167084Z" fill="#27366B"/>
<path d="M293.689 305.175V324.84L59.2417 189.526V169.825L293.689 305.175Z" fill="#0C1D59"/>
<path d="M293.69 305.175L332.496 282.465L371.372 259.93L449.16 214.825L527.088 170L566.069 147.605L605.12 125.35L566.314 148.025L527.437 170.595L449.65 215.7L371.687 260.49L332.741 282.885L293.69 305.175Z" fill="white"/>
<path d="M76.3179 169.825L112.99 148.375L149.731 127.029L223.25 84.4089L296.944 42.0684L333.79 20.8631L370.707 -0.167206L334.035 21.318L297.294 42.6283L223.775 85.2837L150.081 127.624L113.235 148.795L76.3179 169.825Z" fill="white"/>
<path d="M84.8211 174.759L156.205 133.328L227.659 92.0022L299.148 50.8164L370.707 9.70059L299.323 51.0964L227.904 92.4221L156.38 133.608L84.8211 174.759Z" fill="#B2B2BD"/>
<path d="M554.521 111.633V154.113L315.7 292.018V249.537L554.521 111.633Z" fill="#0A1D61"/>
<path d="M554.521 111.633L315.7 249.537L309.576 246.073L548.433 108.169L554.521 111.633Z" fill="#0A1D61"/>
<path d="M315.7 249.537V292.018L309.576 288.518V246.073L315.7 249.537Z" fill="#1C649E"/>
<path d="M315.7 249.537L345.443 232.146L375.256 214.86L434.918 180.288L494.685 145.89L524.568 128.709L554.521 111.633L524.778 129.024L494.93 146.345L435.303 180.917L375.501 215.28L345.618 232.461L315.7 249.537Z" fill="white"/>
<path d="M427.78 333.763V341.182L423.931 343.421L417.737 346.92L412.593 349.895L406.4 353.394L401.291 356.368L395.062 359.867L389.953 362.842L383.725 366.341L378.616 369.315L372.422 372.815L367.278 375.789L361.085 379.288L355.941 382.262L349.747 385.762L344.603 388.736L338.41 392.235L333.686 394.965C333.19 396.137 332.459 397.195 331.538 398.074C330.618 398.953 329.526 399.633 328.332 400.073C327.893 400.233 327.422 400.285 326.96 400.224C326.497 400.163 326.055 399.991 325.673 399.724C325.244 399.326 324.914 398.835 324.708 398.289C324.501 397.742 324.424 397.155 324.483 396.574C324.603 394.475 325.306 392.452 326.512 390.731C327.268 389.215 328.496 387.987 330.012 387.231C330.521 387.016 331.068 386.905 331.621 386.905C332.174 386.905 332.722 387.016 333.231 387.231L333.616 387.511L340.334 383.627L346.528 380.128L351.672 377.154L357.865 373.654L363.009 370.68L369.203 367.181L374.312 364.206L380.54 360.707L385.649 357.733L391.878 354.234L396.987 351.259L403.18 347.76L408.324 344.786L414.518 341.287L419.662 338.312L425.855 334.813L427.78 333.763Z" fill="#E9E9F0"/>
<path d="M346.598 380.653L344.603 389.226L338.41 392.795L340.404 384.222L346.598 380.653Z" fill="#00CE7C"/>
<path d="M357.935 374.109L355.941 382.682L349.747 386.252L351.742 377.679L357.935 374.109Z" fill="#00CE7C"/>
<path d="M369.273 367.566L367.278 376.139L361.084 379.708L363.079 371.135L369.273 367.566Z" fill="#00CE7C"/>
<path d="M380.61 361.022L378.616 369.595L372.422 373.165L374.417 364.592L380.61 361.022Z" fill="#00CE7C"/>
<path d="M391.948 354.479L389.953 363.052L383.725 366.621L385.719 358.048L391.948 354.479Z" fill="#00CE7C"/>
<path d="M403.25 347.935L401.291 356.508L395.062 360.078L397.057 351.504L403.25 347.935Z" fill="#00CE7C"/>
<path d="M414.588 341.392L412.593 349.965L406.399 353.534L408.394 344.961L414.588 341.392Z" fill="#00CE7C"/>
<path d="M425.925 334.848L423.931 343.421L417.737 346.99L419.731 338.417L425.925 334.848Z" fill="#00CE7C"/>
<path d="M427.78 333.763L333.686 388.106L333.301 387.826L329.802 385.832L423.895 331.664L427.78 333.763Z" fill="#E9E9F0"/>
<path d="M333.301 387.826C332.791 387.611 332.244 387.5 331.691 387.5C331.138 387.5 330.59 387.611 330.081 387.826C328.566 388.582 327.338 389.81 326.582 391.325C325.375 393.047 324.672 395.07 324.552 397.169C324.494 397.75 324.571 398.337 324.777 398.884C324.984 399.43 325.314 399.921 325.742 400.318L322.243 398.254C321.724 397.879 321.313 397.375 321.049 396.792C320.785 396.209 320.678 395.567 320.738 394.93C320.855 392.825 321.572 390.797 322.803 389.086C323.575 387.625 324.804 386.458 326.302 385.762C326.975 385.468 327.703 385.325 328.437 385.342C328.976 385.356 329.494 385.554 329.906 385.902L333.301 387.826Z" fill="#D6D3DE"/>
<path d="M328.332 400.668V442.659L317.239 449.063V385.412L328.332 379.008V385.272C327.598 385.255 326.87 385.398 326.197 385.692C324.699 386.388 323.47 387.555 322.698 389.016C321.467 390.727 320.751 392.755 320.634 394.86C320.573 395.497 320.68 396.139 320.944 396.722C321.208 397.305 321.62 397.809 322.138 398.184L325.637 400.248C326.02 400.516 326.461 400.688 326.924 400.749C327.387 400.81 327.858 400.758 328.297 400.598L328.332 400.668Z" fill="#00CE7C"/>
<path d="M328.332 379.008L317.239 385.412L304.537 378.063L315.63 371.66L328.332 379.008Z" fill="#00CE7C"/>
<path d="M317.239 385.412V449.027L304.537 441.714V378.063L317.239 385.412Z" fill="#00814D"/>
<path d="M427.78 333.763C420.046 338.487 412.243 343.106 404.44 347.76L380.995 361.442L357.41 374.914L345.583 381.598L333.686 388.176L345.338 381.178L357.025 374.179L380.47 360.497L404.055 347.025C411.963 342.581 419.836 338.137 427.78 333.763Z" fill="white"/>
<path d="M328.332 379.008C326.67 380.318 324.902 381.488 323.048 382.507C321.196 383.596 319.252 384.521 317.239 385.272C318.907 383.953 320.687 382.782 322.558 381.773C324.402 380.691 326.333 379.766 328.332 379.008Z" fill="white"/>
</g>
<g clip-path="url(#clip4_14_221)">
<path d="M998 476.642L990.1 481.192L674.979 299.28L682.829 294.73L998 476.642Z" fill="#E9E9F0"/>
<path d="M990.1 481.192L970.298 492.643L655.178 310.731L674.979 299.28L990.1 481.192Z" fill="#404758"/>
<path d="M970.298 492.643L962.398 497.193L647.277 315.281L655.178 310.731L970.298 492.643Z" fill="#E9E9F0"/>
<path d="M1175.74 613.406L1024.78 700.562L496.317 402.437L647.277 315.281L1175.74 613.406Z" fill="white" fill-opacity="0.11"/>
<path d="M896.743 474.741C896.651 475.903 896.303 477.031 895.724 478.042C895.144 479.053 894.349 479.924 893.393 480.592C890.91 482.564 888.286 484.353 885.543 485.942L883.493 487.142C883.922 486.698 884.171 486.11 884.193 485.492C884.336 479.188 884.954 472.903 886.043 466.691L889.143 464.841C889.943 464.291 893.293 461.891 894.543 460.791C895.793 459.69 896.743 458.94 896.743 457.84V474.741Z" fill="#022F1D"/>
<path d="M896.744 450.59V457.79C896.744 458.89 895.393 460.041 894.543 460.741C893.693 461.441 889.943 464.241 889.143 464.791L886.043 466.641C886.043 466.641 886.043 467.141 886.693 463.291C889.426 461.039 891.999 458.6 894.393 455.99C895.803 454.533 896.638 452.615 896.744 450.59Z" fill="#006A3F"/>
<path d="M896.743 450.49C896.637 452.515 895.803 454.433 894.393 455.89C891.999 458.5 889.426 460.939 886.693 463.191C887.093 460.891 887.593 458.19 887.693 457.84C888.843 452.19 889.793 448.19 890.743 445.09L892.943 442.639C894.131 441.394 895.125 439.979 895.893 438.439C896.398 437.408 896.687 436.285 896.743 435.139V450.49Z" fill="#EB4A00"/>
<path d="M895.343 424.038C896.103 426.96 896.637 429.935 896.943 432.939C897.181 434.79 896.958 436.67 896.295 438.415C895.632 440.159 894.55 441.713 893.143 442.939L890.943 445.39C891.809 442.475 892.862 439.619 894.093 436.839C896.036 432.861 896.48 428.316 895.343 424.038Z" fill="#006A3F"/>
<path d="M781.736 515.994C781.935 517.692 781.599 519.409 780.774 520.907C779.949 522.404 778.677 523.606 777.136 524.345C775.471 521.141 774.099 517.794 773.035 514.344C774.485 513.744 774.685 511.294 774.685 511.294C776.849 513.124 779.214 514.701 781.736 515.994Z" fill="#D7DDF4"/>
<path d="M769.135 513.244C769.654 513.7 770.274 514.024 770.944 514.189C771.615 514.355 772.315 514.356 772.986 514.194C774.049 517.644 775.421 520.991 777.086 524.195C775.28 524.508 773.425 524.376 771.682 523.81C769.939 523.243 768.361 522.26 767.085 520.944C767.55 518.324 768.235 515.748 769.135 513.244Z" fill="#D7DDF4"/>
<path d="M781.736 516.194C779.203 514.801 776.838 513.123 774.685 511.194C775.485 510.344 773.985 511.194 780.436 514.694C780.984 514.975 781.503 515.31 781.986 515.694L781.736 516.194Z" fill="#006A3F"/>
<path d="M776.736 524.445C775.109 521.223 773.738 517.88 772.635 514.444H773.085C774.176 517.892 775.564 521.238 777.236 524.445H776.736Z" fill="#006A3F"/>
<path d="M767.035 521.194C766.89 521.141 766.73 521.141 766.585 521.194C766.585 520.844 766.585 521.494 766.985 519.594C767.407 517.436 768.044 515.326 768.885 513.294H769.335C768.375 515.867 767.607 518.508 767.035 521.194Z" fill="#006A3F"/>
<path d="M759.084 325.682C759.575 326.407 759.886 327.24 759.99 328.109C760.095 328.979 759.99 329.861 759.684 330.682C759.43 331.584 758.907 332.386 758.184 332.982L757.734 333.332L751.684 329.832L750.484 329.132C751.841 327.841 753.373 326.747 755.034 325.882L756.484 325.332H757.084C757.396 325.224 757.732 325.21 758.051 325.29C758.371 325.369 758.66 325.541 758.884 325.782L759.084 325.682Z" fill="#BCEBF6"/>
<path d="M758.034 324.282L759.085 325.682C758.86 325.44 758.571 325.269 758.251 325.19C757.932 325.11 757.596 325.124 757.284 325.232H756.684L755.234 325.782C753.573 326.647 752.041 327.741 750.684 329.032L748.534 327.782C749.39 326.679 750.531 325.832 751.834 325.332L755.834 323.682C756.218 323.546 756.635 323.53 757.028 323.637C757.421 323.745 757.773 323.969 758.034 324.282Z" fill="#232B3F"/>
<path d="M745.083 338.582L743.683 339.833L741.433 333.082L745.083 331.332C744.676 331.97 744.357 332.659 744.133 333.382L743.833 337.682C743.959 337.918 744.137 338.121 744.354 338.277C744.571 338.433 744.82 338.538 745.083 338.582Z" fill="#5E3A3A"/>
<path d="M739.333 331.832L742.883 330.082L743.483 329.832L745.083 331.132L741.433 332.882L739.783 331.932C739.783 331.932 739.433 331.782 739.333 331.832Z" fill="#404758"/>
<path d="M895.743 431.089C886.893 420.238 875.742 407.187 865.741 397.236C863.486 395.007 860.582 393.549 857.447 393.073C854.312 392.597 851.106 393.127 848.29 394.586C836.117 399.176 824.666 405.491 814.288 413.338C811.793 415.055 809.825 417.434 808.606 420.207C807.387 422.981 806.965 426.039 807.388 429.039C807.982 433.292 809.195 437.437 810.988 441.339C815.288 451.99 818.788 462.541 822.289 473.442C817.288 470.991 807.788 467.641 803.237 465.041C796.437 444.19 795.787 446.19 794.437 436.439C793.42 432.859 793.537 429.052 794.773 425.542C796.009 422.032 798.302 418.991 801.337 416.838C814.638 404.887 851.341 384.236 861.341 387.136C862.079 387.361 862.785 387.68 863.441 388.086C865.689 389.573 867.682 391.413 869.342 393.536C876.892 400.887 885.793 410.787 892.643 418.788C893.993 420.507 894.966 422.49 895.5 424.609C896.034 426.728 896.117 428.936 895.743 431.089Z" fill="#017848"/>
<path d="M827.789 474.941L894.093 436.639C892.862 439.419 891.809 442.275 890.943 445.19L833.689 478.242C832.064 476.618 830.022 475.476 827.789 474.941Z" fill="#006A3F"/>
<path d="M833.689 478.242L890.943 445.189C889.993 448.29 889.043 452.29 887.893 457.94C887.893 458.24 887.293 460.99 886.893 463.291L840.39 490.142C839.56 487.732 838.54 485.391 837.34 483.142C836.36 481.345 835.131 479.695 833.689 478.242Z" fill="#404758"/>
<path d="M886.743 463.291C886.043 467.141 886.143 466.591 886.092 466.641C877.592 471.641 853.59 485.992 841.09 492.893C841.09 491.943 840.54 491.043 840.24 490.143C886.343 463.591 886.743 463.591 886.743 463.291Z" fill="#006A3F"/>
<path d="M886.243 466.641C885.154 472.852 884.536 479.137 884.393 485.442C884.371 486.06 884.122 486.648 883.693 487.092L843.14 510.494C843.315 510.288 843.445 510.049 843.522 509.791C843.6 509.533 843.623 509.261 843.59 508.994C843.534 503.542 842.726 498.124 841.19 492.893C853.741 485.992 877.742 471.791 886.243 466.641ZM876.742 485.892V479.092C876.742 478.292 876.092 478.042 875.292 478.492L853.591 490.942C853.185 491.185 852.842 491.519 852.59 491.919C852.338 492.319 852.184 492.772 852.141 493.243V500.043C852.141 500.843 852.791 501.093 853.591 500.643L875.292 488.192C875.698 487.95 876.041 487.616 876.293 487.216C876.545 486.816 876.699 486.363 876.742 485.892Z" fill="#022F1D"/>
<path d="M876.742 479.092V485.892C876.698 486.363 876.544 486.816 876.292 487.216C876.04 487.616 875.698 487.95 875.292 488.192L853.59 500.643C852.79 501.093 852.14 500.643 852.14 500.043V493.243C852.184 492.772 852.338 492.319 852.59 491.919C852.842 491.519 853.185 491.185 853.59 490.943L875.292 478.492C876.092 478.042 876.742 478.292 876.742 479.092Z" fill="#E9E9F0"/>
<path d="M863.391 388.036C862.018 387.309 860.509 386.876 858.959 386.764C857.41 386.652 855.854 386.864 854.39 387.386C839.389 390.986 812.738 406.537 801.337 416.788C798.336 419.12 796.035 422.234 794.686 425.788C793.786 422.538 709.681 375.785 704.381 374.135C700.761 373.299 696.999 373.299 693.38 374.135C697.68 372.785 695.93 370.085 702.28 367.984C706.481 366.534 741.283 359.434 758.884 339.683C763.884 334.332 763.334 331.932 764.735 331.532C765.091 331.41 765.478 331.41 765.835 331.532L863.441 387.886L863.391 388.036Z" fill="#017848"/>
<path d="M840.34 490.142C836.189 491.942 828.939 494.493 826.739 495.143C822.021 496.704 817.045 497.332 812.088 496.993C808.337 496.693 798.337 495.093 797.937 491.443C797.847 490.88 797.935 490.303 798.187 489.792C798.964 488.54 800.049 487.508 801.337 486.792C803.503 485.439 805.778 484.268 808.137 483.292C811.572 482.134 815.164 481.51 818.788 481.442C823.895 480.956 828.929 479.882 833.789 478.242C835.22 479.729 836.433 481.413 837.389 483.242C838.551 485.462 839.537 487.769 840.34 490.142Z" fill="#D5C78D"/>
<path d="M822.339 473.591C824.035 474.456 825.889 474.966 827.789 475.092C830.027 475.614 832.073 476.758 833.689 478.392C828.829 480.033 823.795 481.107 818.688 481.592C815.064 481.66 811.472 482.284 808.038 483.442C805.287 484.592 799.387 487.292 798.037 489.943C797.785 490.453 797.697 491.03 797.787 491.593C798.187 495.243 808.188 496.843 811.938 497.143C816.895 497.482 821.871 496.854 826.589 495.293C828.789 494.643 836.04 492.093 840.19 490.293C840.49 491.193 840.79 492.093 841.04 493.043C839.59 493.843 827.339 499.893 826.039 500.393C815.932 505.879 804.45 508.311 792.987 507.394C787.029 494.77 777.32 484.292 765.185 477.392C765.11 476.343 765.11 475.29 765.185 474.241L772.235 478.292C774.874 479.579 777.81 480.131 780.736 479.892C785.557 480.069 790.334 478.91 794.537 476.542C797.454 474.858 799.83 472.378 801.387 469.391C801.787 468.391 802.887 465.291 802.937 465.191C807.788 467.641 817.188 470.941 822.339 473.591Z" fill="#006A3F"/>
<path d="M795.937 520.544L797.487 521.345C796.564 524.066 794.703 526.37 792.237 527.845L784.886 532.045C786.397 531.029 787.67 529.699 788.619 528.146C789.568 526.592 790.171 524.852 790.387 523.045C790.459 521.829 790.459 520.61 790.387 519.394C789.998 511.673 787.47 504.211 783.086 497.843C782.786 497.343 782.436 496.843 782.086 496.343C786.528 501.917 789.763 508.354 791.587 515.244C791.587 515.794 791.887 516.344 792.087 516.894C792.3 517.867 792.849 518.735 793.637 519.344L795.537 520.444L795.937 520.544Z" fill="#080B13"/>
<path d="M758.584 496.593C757.739 498.265 757.326 500.121 757.384 501.993C757.41 504.311 757.815 506.608 758.584 508.794C760.157 513.547 762.971 517.794 766.735 521.095C767.618 521.866 768.573 522.553 769.585 523.145C770.668 523.847 771.885 524.317 773.159 524.524C774.433 524.73 775.736 524.669 776.986 524.345C777.986 523.983 778.88 523.377 779.587 522.583C780.294 521.788 780.792 520.83 781.036 519.795C781.404 518.562 781.589 517.281 781.586 515.994C781.363 511.133 779.768 506.435 776.986 502.443C774.69 498.542 771.176 495.502 766.985 493.793L765.685 493.443C764.319 493.081 762.871 493.195 761.58 493.768C760.289 494.341 759.232 495.338 758.584 496.593ZM787.086 519.395C787.274 522.044 786.72 524.693 785.486 527.045C784.18 529.441 781.992 531.235 779.386 532.045C776.773 532.544 774.069 532.175 771.685 530.995C766.222 528.103 761.546 523.923 758.061 518.818C754.576 513.712 752.387 507.835 751.684 501.693C751.025 498.199 751.516 494.585 753.084 491.393C753.703 490.194 754.558 489.133 755.598 488.274C756.638 487.415 757.841 486.775 759.134 486.392C761.758 485.874 764.479 486.225 766.885 487.392C772.723 490.536 777.65 495.134 781.189 500.74C784.728 506.347 786.759 512.772 787.086 519.395Z" fill="#404758"/>
<path d="M777.086 502.443C779.869 506.435 781.464 511.133 781.686 515.994C779.149 514.607 776.783 512.929 774.635 510.994C774.579 509.203 774.006 507.467 772.985 505.994C774.335 504.743 776.236 503.193 777.086 502.443Z" fill="#D7DDF4"/>
<path d="M777.086 502.443C776.236 503.193 774.335 504.744 772.985 506.194C772.085 504.786 770.777 503.687 769.235 503.043C768.058 499.994 767.219 496.825 766.735 493.593C771.087 495.288 774.735 498.408 777.086 502.443Z" fill="#D7DDF4"/>
<path d="M773.085 511.044C773.124 511.584 773.002 512.123 772.735 512.594C772.612 512.827 772.442 513.032 772.235 513.195C772.029 513.359 771.79 513.478 771.535 513.544C771.033 513.715 770.488 513.715 769.985 513.544C768.571 512.833 767.437 511.668 766.766 510.235C766.095 508.802 765.926 507.185 766.285 505.644C767.985 502.393 772.985 506.594 773.085 511.044Z" fill="#080B13"/>
<path d="M773.335 486.842C772.485 486.292 771.535 485.742 770.585 485.242C768.646 484.06 766.464 483.333 764.204 483.116C761.943 482.9 759.662 483.199 757.534 483.992L762.935 480.842C766.355 481.902 769.544 483.599 772.335 485.842L773.335 486.842Z" fill="#080B13"/>
<path d="M769.135 513.244C768.142 515.789 767.372 518.416 766.835 521.094C763.034 517.806 760.185 513.558 758.584 508.794C759.884 508.794 761.935 508.794 765.935 508.794C766.533 510.563 767.648 512.113 769.135 513.244Z" fill="#D7DDF4"/>
<path d="M769.235 503.043C768.803 502.868 768.33 502.818 767.871 502.897C767.411 502.977 766.983 503.183 766.635 503.493L766.185 504.043C763.424 501.803 760.879 499.309 758.584 496.593C759.317 495.16 760.562 494.055 762.073 493.499C763.583 492.943 765.248 492.976 766.735 493.593C767.219 496.825 768.058 499.994 769.235 503.043Z" fill="#D7DDF4"/>
<path d="M729.932 437.639C738.233 441.739 754.934 449.69 767.285 454.74C766.985 457.84 765.485 472.441 765.485 474.041L709.081 441.439C710.031 436.439 712.431 428.838 712.481 428.588L729.932 437.639ZM758.334 458.99C760.384 459.84 761.635 459.44 762.535 456.84L750.584 451.54C751.093 453.729 752.439 455.631 754.334 456.84C755.614 457.652 756.951 458.37 758.334 458.99Z" fill="#017848"/>
<path d="M769.985 513.594C770.487 513.766 771.033 513.766 771.535 513.594C771.79 513.528 772.028 513.409 772.235 513.245C772.442 513.082 772.612 512.877 772.735 512.644C773.002 512.173 773.124 511.634 773.085 511.094C773.085 506.644 768.085 502.443 766.285 505.494C765.875 507.063 766.02 508.726 766.694 510.202C767.368 511.678 768.53 512.876 769.985 513.594ZM772.985 514.444C772.447 514.564 771.89 514.572 771.348 514.469C770.806 514.366 770.292 514.153 769.835 513.844L769.285 513.444C767.756 512.248 766.638 510.605 766.085 508.744C765.771 508.035 765.608 507.269 765.608 506.494C765.608 505.719 765.771 504.952 766.085 504.244L766.735 503.593C767.078 503.293 767.498 503.092 767.947 503.013C768.397 502.933 768.859 502.979 769.285 503.143C769.945 503.378 770.556 503.734 771.085 504.193C771.847 504.781 772.506 505.491 773.035 506.294C774.036 507.776 774.607 509.507 774.685 511.294C774.685 511.294 774.435 513.594 772.985 514.194V514.444Z" fill="#404758"/>
<path d="M765.935 508.594C763.487 508.759 761.032 508.759 758.584 508.594C756.984 504.684 756.984 500.302 758.584 496.393C760.879 499.109 763.424 501.603 766.185 503.843C765.794 504.567 765.568 505.369 765.525 506.19C765.482 507.012 765.622 507.833 765.935 508.594Z" fill="#D7DDF4"/>
<path d="M765.485 474.041C765.41 475.09 765.41 476.143 765.485 477.192C758.784 474.091 750.784 473.591 746.133 479.092C745.249 480.372 744.48 481.727 743.833 483.142L708.831 463.141C708.831 460.191 708.481 457.04 708.431 454.54C708.26 451.209 708.26 447.871 708.431 444.539C708.492 443.534 708.609 442.532 708.781 441.539L765.485 474.041Z" fill="#006A3F"/>
<path d="M765.685 331.632C765.361 331.518 765.008 331.518 764.685 331.632C763.285 332.032 763.635 334.432 758.834 339.783C750.356 348.382 740.123 355.05 728.833 359.334C720.073 362.807 711.105 365.729 701.981 368.084C695.58 370.235 697.43 373.085 693.08 374.235C688.73 375.385 687.13 374.785 679.129 376.085C680.829 375.235 681.229 373.135 682.279 370.735C683.165 368.681 684.646 366.939 686.53 365.734C691.449 365.574 696.372 365.674 701.281 366.034C717.532 364.934 745.784 353.583 756.934 339.683C758.434 337.782 760.585 334.682 759.385 332.482C759.256 332.229 759.073 332.008 758.848 331.835C758.623 331.661 758.362 331.541 758.084 331.482L757.034 331.082C757.034 330.282 755.734 328.732 753.484 328.482C756.399 328.835 759.266 329.506 762.035 330.482L763.735 331.132C764.338 331.353 764.923 331.62 765.485 331.932L765.685 331.632Z" fill="#017848"/>
<path d="M762.534 456.84C761.634 459.44 760.384 459.84 758.334 458.99C756.951 458.37 755.614 457.652 754.334 456.84C752.439 455.631 751.093 453.729 750.584 451.54L762.534 456.84Z" fill="#080B13"/>
<path d="M751.734 501.543C752.437 507.685 754.626 513.562 758.111 518.668C761.596 523.773 766.272 527.953 771.735 530.845C774.119 532.025 776.823 532.394 779.436 531.895C782.042 531.084 784.23 529.291 785.536 526.895C786.77 524.543 787.324 521.894 787.136 519.244C786.829 512.642 784.828 506.23 781.325 500.625C777.822 495.02 772.935 490.411 767.135 487.242C764.729 486.075 762.008 485.724 759.384 486.242C758.091 486.624 756.888 487.265 755.848 488.124C754.808 488.983 753.953 490.044 753.334 491.242C751.698 494.412 751.137 498.027 751.734 501.543ZM774.585 532.895C762.635 529.345 751.984 513.694 750.884 500.143C750.646 497.632 750.815 495.1 751.384 492.643C751.716 490.897 752.407 489.24 753.415 487.777C754.422 486.313 755.723 485.075 757.234 484.142H757.534C759.662 483.349 761.943 483.049 764.203 483.266C766.464 483.482 768.646 484.209 770.585 485.392C771.535 485.892 772.485 486.442 773.335 486.992C776.682 489.812 779.701 492.999 782.336 496.493C782.686 496.993 783.036 497.493 783.336 497.993C787.72 504.361 790.248 511.823 790.636 519.544C790.709 520.76 790.709 521.979 790.636 523.195C790.421 525.002 789.818 526.742 788.869 528.295C787.92 529.849 786.646 531.179 785.136 532.195C783.526 533.047 781.753 533.55 779.935 533.671C778.117 533.792 776.294 533.527 774.585 532.895Z" fill="#232B3F"/>
<path d="M757.284 330.782C754.86 329.912 752.343 329.325 749.784 329.032C750.979 328.343 752.361 328.045 753.734 328.182C756.034 328.582 757.384 330.032 757.284 330.782Z" fill="#64A6E0"/>
<path d="M749.784 329.032C752.721 329.345 755.599 330.069 758.334 331.182C758.612 331.241 758.873 331.362 759.098 331.535C759.323 331.708 759.506 331.929 759.634 332.182C760.834 334.232 758.684 337.483 757.184 339.383C746.033 353.284 717.682 364.634 701.531 365.734C699.241 365.838 696.947 365.721 694.68 365.384C692.069 365.14 689.441 365.14 686.83 365.384C753.734 326.782 749.584 329.032 749.784 329.032Z" fill="#017848"/>
<path d="M749.784 329.032L686.73 365.384C680.729 365.934 670.329 367.884 642.377 372.835C668.245 357.867 694.13 342.866 720.032 327.832L738.433 328.232C741.583 328.232 746.334 328.532 749.434 328.832L749.784 329.032Z" fill="#022F1D"/>
<path d="M726.232 395.336L729.632 397.136C728.482 400.137 720.032 423.788 717.582 431.239L712.581 428.589C715.281 421.488 724.982 398.587 726.232 395.336Z" fill="#404758"/>
<path d="M720.082 327.982C721.3 327.304 722.694 327.008 724.082 327.132C731.233 327.132 746.384 327.132 753.634 328.182C752.292 328.039 750.94 328.337 749.784 329.032C739.916 328.045 729.995 327.695 720.082 327.982Z" fill="#0A1D61"/>
<path d="M722.582 393.586L726.232 395.586C724.982 398.586 715.282 421.738 712.481 428.838L706.981 425.938C707.931 423.838 720.582 397.386 721.082 396.436C721.582 395.486 722.082 394.236 722.582 393.586Z" fill="#404758"/>
<path d="M712.481 428.588C711.13 432.811 709.995 437.1 709.081 441.439L649.077 406.987C649.523 402.897 650.225 398.839 651.177 394.836C664.728 402.537 692.43 418.138 712.481 428.588ZM703.281 432.739C705.631 433.789 706.881 433.389 707.781 430.389L695.53 423.838C695.576 425.178 695.951 426.486 696.622 427.646C697.294 428.806 698.241 429.782 699.38 430.489C700.605 431.363 701.911 432.117 703.281 432.739Z" fill="#017848"/>
<path d="M708.681 454.54C708.681 457.04 708.681 460.191 709.081 463.141L651.727 430.139C650.28 422.503 649.494 414.757 649.377 406.987L709.381 441.439C709.209 442.432 709.092 443.434 709.031 444.439C708.74 447.798 708.623 451.169 708.681 454.54Z" fill="#006A3F"/>
<path d="M707.781 430.388C706.881 433.389 705.631 433.789 703.281 432.739C701.911 432.116 700.605 431.363 699.381 430.488C698.242 429.782 697.294 428.806 696.623 427.645C695.951 426.485 695.576 425.178 695.53 423.838L707.781 430.388Z" fill="#080B13"/>
<path d="M686.73 365.434C684.846 366.639 683.365 368.381 682.479 370.435C681.429 372.835 681.029 374.935 679.329 375.785L647.477 381.635L645.677 381.935H644.927C638.177 383.185 637.727 375.285 642.577 372.485C670.379 367.934 680.779 365.984 686.73 365.434Z" fill="#017848"/>
<path d="M666.278 323.581C678.985 321.503 691.896 320.966 704.731 321.981C711.353 322.896 717.846 324.574 724.082 326.982C722.694 326.857 721.3 327.154 720.082 327.832H719.532C713.789 325.599 707.844 323.925 701.781 322.831C689.613 321.887 677.377 322.391 665.328 324.331C661.483 324.186 657.65 324.85 654.078 326.282C655.213 325.615 656.444 325.126 657.728 324.831C660.553 324.259 663.407 323.841 666.278 323.581Z" fill="#0A1D61"/>
<path d="M600.224 357.634L654.078 326.532C657.645 325.085 661.482 324.421 665.328 324.581C677.377 322.641 689.613 322.137 701.781 323.081C707.842 324.185 713.786 325.859 719.532 328.082H720.082C636.326 376.385 642.927 373.085 641.827 373.085H641.727C634.732 372.483 627.784 371.431 620.925 369.934C615.804 368.221 611.149 365.346 607.324 361.534C605.73 360.014 603.886 358.78 601.874 357.884C601.349 357.682 600.786 357.597 600.224 357.634Z" fill="#017848"/>
<path d="M596.724 364.084C596.868 362.797 597.188 361.535 597.674 360.334C598.188 359.213 599.046 358.284 600.124 357.684C600.603 357.593 601.095 357.593 601.574 357.684C603.586 358.58 605.43 359.814 607.024 361.334C610.849 365.146 615.504 368.021 620.625 369.735C627.483 371.236 634.432 372.289 641.427 372.885H642.327C637.326 375.685 637.926 383.585 644.677 382.335L647.227 381.885C643.808 382.874 640.282 383.445 636.726 383.585L619.725 381.435C618.125 381.785 601.324 375.435 598.124 369.285C598.124 369.285 596.974 367.734 596.574 367.734C596.515 366.516 596.565 365.294 596.724 364.084Z" fill="#017848"/>
<path d="M636.726 413.888C640.437 419.729 643.363 426.033 645.427 432.639C645.61 433.183 645.939 433.667 646.377 434.039L650.027 436.139C649.091 438.88 647.213 441.201 644.727 442.689L637.426 446.94C638.933 445.913 640.201 444.573 641.142 443.011C642.082 441.448 642.674 439.701 642.877 437.889C643.059 436.681 643.143 435.46 643.127 434.239C642.85 427.005 640.64 419.977 636.726 413.888Z" fill="#080B13"/>
<path d="M611.125 411.637C610.273 413.289 609.86 415.131 609.925 416.988C609.967 419.303 610.372 421.598 611.125 423.788C612.737 428.561 615.584 432.822 619.375 436.139C620.259 436.895 621.214 437.564 622.225 438.139C623.303 438.853 624.52 439.33 625.796 439.537C627.072 439.743 628.378 439.676 629.626 439.339C630.626 438.977 631.52 438.371 632.227 437.577C632.934 436.782 633.432 435.824 633.676 434.789C634.065 433.578 634.251 432.31 634.226 431.039C634.013 426.161 632.418 421.444 629.626 417.438C627.33 413.536 623.817 410.497 619.625 408.787L618.375 408.487C616.989 408.076 615.503 408.167 614.177 408.743C612.851 409.319 611.77 410.344 611.125 411.637ZM639.676 434.389C639.849 437.043 639.277 439.692 638.026 442.039C637.407 443.238 636.552 444.299 635.512 445.158C634.472 446.017 633.27 446.657 631.976 447.04C629.347 447.542 626.626 447.173 624.225 445.99C617.12 442.353 611.421 436.462 608.024 429.239C606.036 425.312 604.766 421.061 604.274 416.688C603.644 413.192 604.134 409.587 605.674 406.387C606.313 405.194 607.18 404.138 608.227 403.28C609.274 402.422 610.479 401.778 611.775 401.387C614.383 400.898 617.079 401.248 619.475 402.387C625.313 405.53 630.24 410.128 633.779 415.735C637.318 421.341 639.35 427.767 639.676 434.389Z" fill="#404758"/>
<path d="M634.226 431.038C631.712 429.641 629.363 427.963 627.226 426.038C627.135 424.246 626.546 422.514 625.526 421.038C626.876 419.588 628.776 418.038 629.626 417.288C632.418 421.293 634.013 426.01 634.226 430.888V431.038Z" fill="#0A1D61"/>
<path d="M634.226 431.038C634.446 432.732 634.118 434.451 633.29 435.944C632.462 437.438 631.178 438.627 629.626 439.339C627.964 436.134 626.592 432.787 625.526 429.338C626.058 429.031 626.498 428.585 626.797 428.048C627.097 427.511 627.245 426.903 627.226 426.288C629.376 428.126 631.724 429.719 634.226 431.038Z" fill="#0A1D61"/>
<path d="M629.626 417.438C628.776 418.188 626.876 419.738 625.526 421.188C624.638 419.769 623.326 418.667 621.775 418.038C620.676 415.04 619.872 411.941 619.375 408.787C623.659 410.45 627.267 413.494 629.626 417.438Z" fill="#0A1D61"/>
<path d="M625.526 429.188C626.592 432.637 627.964 435.984 629.626 439.189C627.824 439.5 625.974 439.372 624.233 438.815C622.492 438.258 620.911 437.288 619.625 435.989C620.222 433.325 620.99 430.703 621.925 428.138L622.475 428.488C622.903 428.818 623.397 429.051 623.924 429.172C624.45 429.293 624.997 429.298 625.526 429.188Z" fill="#0A1D61"/>
<path d="M625.626 426.088C625.678 426.607 625.574 427.13 625.326 427.588C625.046 428.064 624.601 428.42 624.076 428.589C623.545 428.677 623.001 428.59 622.526 428.338C621.112 427.628 619.978 426.462 619.307 425.029C618.636 423.596 618.466 421.979 618.825 420.438C620.575 417.438 625.526 421.588 625.626 426.088Z" fill="#080B13"/>
<path d="M618.475 396.086C621.471 397.863 624.241 399.995 626.726 402.437C625.588 401.605 624.384 400.87 623.126 400.237C621.187 399.054 619.005 398.327 616.744 398.11C614.483 397.894 612.203 398.193 610.075 398.986L616.675 395.186L618.475 396.086Z" fill="#080B13"/>
<path d="M621.725 418.038C621.297 417.867 620.829 417.824 620.377 417.913C619.924 418.001 619.507 418.218 619.175 418.538C618.985 418.684 618.83 418.872 618.725 419.088C615.974 416.82 613.415 414.328 611.075 411.637C611.843 410.215 613.117 409.132 614.644 408.605C616.172 408.077 617.843 408.142 619.325 408.787C619.822 411.941 620.626 415.04 621.725 418.038Z" fill="#0A1D61"/>
<path d="M621.725 428.288C620.778 430.849 620.01 433.472 619.425 436.139C615.586 432.773 612.72 428.439 611.125 423.588C613.573 423.727 616.027 423.727 618.475 423.588C619.062 425.446 620.195 427.084 621.725 428.288Z" fill="#0A1D61"/>
<path d="M619.725 381.435C625.877 382.512 632.089 383.214 638.326 383.535C662.128 379.135 678.329 376.535 679.379 375.985C686.73 374.785 690.83 374.935 693.33 374.135C696.947 373.279 700.714 373.279 704.331 374.135C709.681 375.635 793.737 422.538 794.637 425.788C793.86 429.279 793.86 432.898 794.637 436.389C795.987 445.989 796.837 444.789 803.437 464.991C803.437 464.991 802.287 468.191 801.887 469.191C800.33 472.178 797.954 474.658 795.037 476.341C790.833 478.71 786.057 479.869 781.236 479.692C778.31 479.931 775.374 479.378 772.735 478.092L765.685 474.041C765.685 472.441 767.235 457.04 767.485 454.74C772.446 457.121 777.713 458.804 783.136 459.74C786.136 459.74 786.586 457.59 786.686 454.49C786.686 449.09 785.736 434.939 785.386 432.589C785.108 431.11 784.518 429.708 783.656 428.475C782.794 427.242 781.679 426.207 780.386 425.438C777.024 422.984 773.499 420.762 769.835 418.788C761.734 414.287 700.73 381.535 700.18 381.235C698.566 380.498 696.894 379.895 695.18 379.435C694.373 379.261 693.537 379.261 692.73 379.435C691.299 379.641 689.88 379.925 688.48 380.285C675.392 383.154 662.826 388.028 651.227 394.736C650.275 398.739 649.573 402.797 649.127 406.887L631.726 396.736C626.878 392.362 622.819 387.186 619.725 381.435Z" fill="#017848"/>
<path d="M618.775 419.088C618.411 419.766 618.196 420.513 618.144 421.281C618.093 422.048 618.205 422.818 618.475 423.538C616.027 423.677 613.573 423.677 611.125 423.538C609.548 419.641 609.548 415.284 611.125 411.387C613.454 414.164 616.013 416.74 618.775 419.088Z" fill="#0A1D61"/>
<path d="M624.075 428.588C624.601 428.42 625.046 428.064 625.326 427.588C625.574 427.13 625.678 426.607 625.626 426.088C625.626 421.588 620.625 417.438 618.825 420.438C618.466 421.979 618.635 423.596 619.307 425.029C619.978 426.462 621.112 427.628 622.525 428.338C623.001 428.59 623.545 428.677 624.075 428.588ZM627.226 426.138C627.245 426.753 627.097 427.361 626.797 427.898C626.498 428.435 626.058 428.881 625.526 429.189C624.988 429.317 624.429 429.331 623.886 429.227C623.343 429.124 622.828 428.906 622.375 428.588L621.825 428.238C620.305 427.013 619.189 425.358 618.625 423.488C618.355 422.768 618.242 421.998 618.294 421.231C618.346 420.463 618.561 419.715 618.925 419.038C619.031 418.822 619.185 418.634 619.375 418.488C619.707 418.168 620.125 417.952 620.577 417.863C621.029 417.774 621.497 417.818 621.925 417.988C622.596 418.232 623.222 418.587 623.775 419.038C624.523 419.626 625.165 420.336 625.676 421.138C626.666 422.619 627.204 424.357 627.226 426.138Z" fill="#404758"/>
<path d="M608.024 429.088C611.421 436.312 617.12 442.203 624.225 445.839C626.626 447.023 629.347 447.392 631.976 446.89C633.27 446.507 634.472 445.867 635.512 445.008C636.552 444.148 637.407 443.088 638.026 441.889C639.277 439.542 639.848 436.893 639.676 434.239C639.37 427.636 637.368 421.224 633.865 415.619C630.362 410.014 625.475 405.405 619.675 402.237C617.279 401.098 614.583 400.747 611.975 401.237C610.679 401.628 609.474 402.272 608.427 403.13C607.38 403.988 606.513 405.043 605.874 406.237C604.334 409.437 603.844 413.042 604.474 416.538C604.903 420.899 606.105 425.149 608.024 429.088ZM610.074 399.086C612.203 398.293 614.483 397.994 616.744 398.21C619.004 398.427 621.187 399.154 623.125 400.336C624.384 400.97 625.588 401.705 626.726 402.537C627.326 403.087 627.876 403.637 628.426 404.237C631.557 407.103 634.343 410.325 636.726 413.837C640.754 419.945 643.052 427.03 643.377 434.339C643.393 435.56 643.309 436.781 643.127 437.989C642.924 439.801 642.332 441.548 641.392 443.11C640.451 444.673 639.183 446.013 637.676 447.04C635.482 448.105 633.055 448.604 630.618 448.491C628.181 448.377 625.811 447.655 623.725 446.389C617.575 442.716 612.493 437.497 608.984 431.252C605.475 425.006 603.662 417.951 603.724 410.787C603.819 409.397 604.071 408.021 604.474 406.687C605.3 403.53 607.304 400.81 610.074 399.086Z" fill="#232B3F"/>
<path d="M843.59 508.994C843.534 503.542 842.726 498.124 841.19 492.893C839.74 493.693 827.489 499.743 826.189 500.243C823.889 501.293 821.539 502.293 819.188 503.243C811.026 506.909 802.023 508.291 793.137 507.244C787.179 494.619 777.47 484.142 765.335 477.242C761.501 475.273 757.141 474.573 752.884 475.242C750.199 475.695 747.757 477.075 745.984 479.142C745.099 480.422 744.33 481.777 743.683 483.192L708.681 463.191L651.727 430.139L646.727 427.238C642.242 414.972 634.601 404.106 624.576 395.736C619.575 391.836 610.625 385.736 605.724 389.436C604.057 390.977 602.963 393.041 602.624 395.286C599.594 390.778 597.596 385.655 596.774 380.285C596.628 379.525 596.528 378.757 596.474 377.985V385.836C596.395 386.834 596.395 387.837 596.474 388.836C597.385 395.39 599.987 401.594 604.024 406.837C604.274 401.837 604.974 394.536 610.025 393.836C612.301 393.69 614.573 394.193 616.575 395.286L618.325 396.186C621.368 397.922 624.189 400.021 626.726 402.437C627.326 402.987 627.876 403.537 628.426 404.137C631.563 407.034 634.349 410.29 636.726 413.838C640.437 419.679 643.363 425.983 645.427 432.589C645.61 433.133 645.939 433.617 646.377 433.989L650.027 436.089L747.784 492.543C747.533 492.328 747.334 492.059 747.204 491.755C747.074 491.452 747.016 491.122 747.034 490.793C747.01 489.521 747.196 488.254 747.584 487.042C749.334 481.492 754.784 478.092 762.585 480.642C766.005 481.702 769.194 483.399 771.985 485.642L772.985 486.442C776.332 489.262 779.351 492.449 781.986 495.943C786.428 501.517 789.663 507.954 791.487 514.844C791.487 515.394 791.787 515.944 791.987 516.494C792.2 517.467 792.749 518.335 793.537 518.944L795.437 520.044L796.987 520.844C799.891 522.217 802.901 523.354 805.988 524.245C812.266 523.658 818.411 522.071 824.189 519.544C829.321 517.28 834.329 514.743 839.19 511.944L842.44 510.044C842.693 509.957 842.926 509.819 843.124 509.639C843.322 509.458 843.481 509.238 843.59 508.994Z" fill="#022F1D"/>
<path d="M596.374 371.185C597.947 372.527 599.152 374.248 599.874 376.185C600.117 376.86 600.252 377.568 600.274 378.285C600.386 380.484 600.386 382.687 600.274 384.886C600.274 385.986 599.774 386.386 599.124 385.436C598.058 383.414 597.315 381.237 596.924 378.985C596.752 378.093 596.635 377.191 596.574 376.285L596.374 371.185Z" fill="#E9E9F0"/>
<path d="M598.924 385.586C599.574 386.536 599.874 386.136 600.074 385.036C600.186 382.837 600.186 380.634 600.074 378.435C600.052 377.718 599.917 377.01 599.674 376.335C598.952 374.398 597.747 372.676 596.174 371.335V368.034C596.174 368.034 597.624 369.385 597.724 369.585C600.924 375.735 617.725 382.085 619.325 381.735C622.567 387.41 626.762 392.485 631.726 396.736L649.427 406.987C649.439 414.763 650.226 422.519 651.777 430.138L646.777 427.238C642.292 414.972 634.651 404.106 624.626 395.736C619.625 391.836 610.675 385.736 605.774 389.436C604.107 390.977 603.013 393.041 602.674 395.286C599.644 390.777 597.646 385.655 596.824 380.285C596.56 379.054 596.459 377.793 596.524 376.535C596.696 379.684 597.513 382.765 598.924 385.586Z" fill="#006A3F"/>
<path d="M785.186 432.639C785.536 434.989 786.636 449.14 786.486 454.54C786.498 455.803 786.278 457.057 785.836 458.24C785.556 458.753 785.132 459.173 784.617 459.448C784.102 459.723 783.518 459.842 782.936 459.79C780.706 459.618 778.515 459.113 776.435 458.29C773.985 457.49 770.835 456.24 767.285 454.74C767.685 450.59 768.085 446.89 768.185 445.139C768.485 441.139 769.635 420.138 769.785 418.838C773.449 420.812 776.974 423.034 780.336 425.488C781.876 426.569 783.184 427.946 784.186 429.538C784.711 430.5 785.051 431.551 785.186 432.639Z" fill="#022F1D"/>
<path d="M769.785 418.838C769.785 419.988 768.485 441.139 768.185 445.14C768.185 446.89 767.685 450.59 767.285 454.74C755.134 449.74 738.233 441.739 729.932 437.639L717.582 431.239C720.032 423.788 728.482 400.137 729.632 397.137L769.785 418.838Z" fill="#022F1D"/>
<path d="M722.582 393.586C722.082 394.486 721.532 395.586 721.082 396.436C720.632 397.286 707.931 423.838 706.981 425.938L696.98 420.938C692.38 418.438 661.978 401.287 651.327 395.286C662.926 388.578 675.492 383.704 688.58 380.835C689.98 380.475 691.399 380.192 692.83 379.985C693.638 379.811 694.473 379.811 695.28 379.985C696.994 380.446 698.667 381.048 700.281 381.785L722.582 393.586Z" fill="#022F1D"/>
<path d="M619.225 436.339C615.399 432.982 612.534 428.668 610.924 423.838C609.391 419.864 609.391 415.462 610.924 411.487C611.714 410.02 613.026 408.903 614.6 408.357C616.174 407.81 617.896 407.875 619.425 408.537C627.276 410.937 634.426 422.288 634.426 431.039C634.426 440.639 626.726 442.539 619.225 436.339ZM611.375 423.588C616.075 437.639 630.326 444.64 633.476 434.639C636.276 425.538 627.326 410.287 618.075 408.587C613.075 407.687 610.174 411.687 610.174 416.888C610.211 419.171 610.616 421.434 611.375 423.588Z" fill="#006A3F"/>
<path d="M766.735 521.295C762.879 517.974 759.993 513.671 758.384 508.844H758.834C760.422 513.588 763.254 517.818 767.035 521.095L766.735 521.295Z" fill="#006A3F"/>
<path d="M766.735 521.294L767.035 520.944C767.899 521.689 768.837 522.342 769.835 522.895C774.835 525.595 779.336 524.895 780.936 519.744C783.786 510.694 774.835 495.393 765.535 493.693C760.535 492.793 757.684 496.743 757.684 501.993C757.721 504.272 758.109 506.532 758.834 508.694H758.384C756.759 504.737 756.759 500.299 758.384 496.343C759.203 494.947 760.503 493.897 762.04 493.391C763.578 492.885 765.247 492.956 766.735 493.593C774.635 496.043 781.736 507.394 781.736 516.044C781.736 524.695 774.485 527.845 766.735 521.294Z" fill="#006A3F"/>
<path d="M624.576 429.588C620.025 429.588 615.875 421.638 618.975 418.438C619.34 418.055 619.813 417.792 620.332 417.684C620.85 417.577 621.388 417.631 621.875 417.838C623.476 418.575 624.842 419.74 625.822 421.205C626.801 422.67 627.357 424.377 627.426 426.138C626.876 426.138 626.926 426.138 627.426 426.138C627.452 426.786 627.297 427.428 626.979 427.993C626.661 428.558 626.193 429.024 625.626 429.338C625.297 429.494 624.939 429.58 624.576 429.588ZM619.575 418.638C616.325 422.038 621.375 430.139 625.476 428.988C625.972 428.716 626.381 428.308 626.655 427.812C626.93 427.317 627.058 426.754 627.026 426.188C626.94 424.868 626.586 423.579 625.984 422.401C625.382 421.223 624.545 420.181 623.526 419.338C622.275 418.288 620.575 417.588 619.425 418.588L619.575 418.638Z" fill="#006A3F"/>
<path d="M782.886 459.991C780.641 459.844 778.432 459.355 776.335 458.541C774.085 457.74 770.985 456.54 767.185 454.99C755.084 449.99 738.083 441.889 729.832 437.839L717.482 431.439L710.581 427.839L706.831 425.938L696.83 420.688C692.53 418.338 661.828 401.237 651.227 395.086V394.636C661.878 400.787 692.53 417.938 696.83 420.288L706.831 425.288L710.531 427.238L717.431 430.839L729.832 437.189C738.033 441.289 754.834 449.29 767.135 454.34C770.935 455.94 773.985 457.09 776.235 457.89C778.306 458.675 780.478 459.164 782.686 459.341C783.224 459.405 783.77 459.307 784.252 459.057C784.733 458.807 785.129 458.418 785.386 457.94C785.792 456.784 785.995 455.566 785.986 454.34C785.986 448.89 785.036 434.739 784.686 432.489C784.543 431.435 784.204 430.417 783.686 429.489C782.73 427.907 781.452 426.545 779.936 425.488C776.597 423.026 773.088 420.804 769.435 418.838V418.438C773.118 420.407 776.66 422.629 780.036 425.088C781.589 426.21 782.913 427.619 783.936 429.239C784.476 430.212 784.816 431.283 784.936 432.389C785.286 434.689 786.436 448.84 786.286 454.34C786.32 455.642 786.081 456.936 785.586 458.141C785.302 458.702 784.852 459.161 784.297 459.457C783.742 459.752 783.11 459.869 782.486 459.791L782.886 459.991Z" fill="#232B3F"/>
<path d="M709.081 463.191C709.081 460.64 708.731 457.49 708.681 454.59V454.24C708.531 451.525 708.531 448.804 708.681 446.09V444.439C708.689 443.449 708.79 442.461 708.981 441.489C708.981 441.089 708.981 440.689 708.981 440.239C709.866 436.303 710.95 432.414 712.231 428.588C714.982 421.488 724.682 398.336 725.982 395.286V394.986H726.432V395.336C725.132 398.386 715.432 421.538 712.681 428.588C711.681 431.889 710.281 436.589 709.531 440.089C709.531 440.539 709.531 440.889 709.531 441.289C709.349 442.264 709.232 443.249 709.181 444.239V445.89C709.181 449.59 709.181 449.59 709.181 453.99V454.34C709.181 457.24 709.181 460.39 709.581 462.941L709.081 463.191Z" fill="#232B3F"/>
<path d="M765.285 477.242C765.285 476.192 765.285 475.091 765.285 473.991C765.285 471.841 766.135 464.691 766.835 457.74V454.94C767.335 449.94 767.635 446.89 767.785 445.29C767.935 443.689 768.285 436.539 768.635 430.639C768.985 424.738 769.235 420.238 769.335 419.138C765.735 417.188 752.284 409.887 729.332 397.536L725.982 395.736L723.482 394.386L722.282 393.736L699.88 381.735C698.27 380.989 696.597 380.386 694.88 379.935C694.118 379.809 693.341 379.809 692.58 379.935C691.58 379.935 690.13 380.385 688.38 380.835C675.511 383.676 663.151 388.465 651.727 395.036C650.785 398.971 650.1 402.963 649.677 406.987C649.604 408.002 649.604 409.022 649.677 410.037V411.087C649.677 412.537 649.677 413.987 649.927 415.388C649.927 418.338 651.077 424.938 652.027 430.089H651.527C650.627 425.088 649.727 418.338 649.427 415.388C649.427 413.937 649.427 412.487 649.427 411.087V410.037C649.354 408.988 649.354 407.936 649.427 406.887C649.891 402.8 650.592 398.742 651.527 394.736C663.142 388.013 675.724 383.122 688.83 380.235L693.08 379.385C693.921 379.21 694.789 379.21 695.63 379.385C697.349 379.83 699.023 380.433 700.63 381.185L723.082 393.236L724.282 393.886L726.782 395.236L730.132 397.036C753.434 409.537 766.935 417.038 770.135 418.738C770.135 419.338 769.735 424.688 769.435 430.339C769.135 435.989 768.685 442.989 768.535 445.039C768.385 447.09 768.085 450.04 767.635 454.69L767.335 457.49C766.635 464.391 765.935 471.541 765.835 473.691V473.941C765.759 474.99 765.759 476.043 765.835 477.092L765.285 477.242Z" fill="#232B3F"/>
<path d="M634.076 431.189C631.526 429.799 629.144 428.121 626.976 426.188C627.276 426.188 626.976 426.188 627.376 426.188C629.513 428.114 631.862 429.792 634.376 431.189H634.076Z" fill="#006A3F"/>
<path d="M629.426 439.439C627.747 436.236 626.358 432.889 625.276 429.438H625.776C626.823 432.894 628.196 436.242 629.876 439.439H629.426Z" fill="#006A3F"/>
<path d="M619.625 436.189H619.125C619.682 433.509 620.468 430.883 621.475 428.338H621.925C620.926 430.881 620.156 433.509 619.625 436.189Z" fill="#006A3F"/>
<path d="M611.125 424.038V423.588C613.573 423.738 616.027 423.738 618.475 423.588C616.035 423.875 613.581 424.025 611.125 424.038Z" fill="#006A3F"/>
<path d="M618.625 419.238C615.849 416.998 613.287 414.503 610.975 411.787L611.325 411.437C613.606 414.165 616.152 416.661 618.925 418.888L618.625 419.238Z" fill="#006A3F"/>
<path d="M621.725 418.138C620.615 415.122 619.795 412.008 619.275 408.837H619.775C619.775 409.387 619.775 410.037 620.175 410.837C621.725 418.838 622.676 417.688 621.725 418.138Z" fill="#006A3F"/>
<path d="M625.726 421.388L625.376 421.038C626.826 419.438 628.476 418.188 629.526 417.188C629.526 417.438 629.526 417.188 629.526 417.588C628.926 418.588 627.076 419.888 625.726 421.388Z" fill="#006A3F"/>
<path d="M758.584 508.994V508.594C761.021 508.677 763.46 508.593 765.885 508.344V508.844C763.457 509.042 761.019 509.092 758.584 508.994Z" fill="#006A3F"/>
<path d="M766.035 504.243C763.283 501.993 760.739 499.499 758.434 496.793L758.734 496.443C761.045 499.128 763.589 501.605 766.335 503.843L766.035 504.243Z" fill="#006A3F"/>
<path d="M768.985 503.143C767.884 500.129 767.08 497.014 766.585 493.843H767.035C767.533 496.997 768.337 500.095 769.435 503.093L768.985 503.143Z" fill="#006A3F"/>
<path d="M773.135 506.343L772.785 506.043C774.235 504.493 775.985 503.093 776.935 502.243L777.285 502.593L776.185 503.543C775.119 504.422 774.101 505.356 773.135 506.343Z" fill="#006A3F"/>
<path d="M765.985 503.943C768.585 499.843 775.085 506.193 774.885 511.194C774.885 512.444 774.185 514.094 772.885 514.444C768.535 515.744 763.485 507.794 765.985 503.943ZM766.385 504.193C764.085 507.744 768.885 515.144 772.785 514.194C773.785 513.894 774.285 512.394 774.385 511.344C774.385 506.243 768.585 500.743 766.385 504.193Z" fill="#006A3F"/>
<path d="M651.727 389.986L648.877 401.887L647.677 402.237C648.15 401.324 648.487 400.347 648.677 399.336L648.327 394.336C648.187 393.973 647.965 393.648 647.677 393.386L647.177 393.086L651.727 389.986Z" fill="#080B13"/>
<path d="M651.727 389.986L647.177 393.036H646.827L644.377 392.486L649.677 388.936L651.727 389.986Z" fill="#404758"/>
<path d="M648.677 388.586C648.795 388.504 648.934 388.46 649.077 388.46C649.22 388.46 649.36 388.504 649.477 388.586L644.177 392.136H643.527L648.527 388.736L648.677 388.586Z" fill="#404758"/>
<path d="M648.177 394.286L648.527 399.287C648.337 400.297 648 401.274 647.527 402.187C646.537 403.947 645.399 405.619 644.127 407.187L641.477 410.237C640.825 410.958 640.045 411.551 639.177 411.987C638.919 412.083 638.635 412.083 638.377 411.987C637.977 411.987 637.677 411.537 637.427 410.937C636.652 407.886 636.652 404.689 637.427 401.637C637.666 400.298 638.177 399.022 638.927 397.887C639.081 397.617 639.266 397.365 639.477 397.137L640.777 395.586C641.674 394.687 642.703 393.928 643.827 393.336C644.735 392.767 645.816 392.537 646.877 392.686H647.227L647.727 392.986C647.996 393.369 648.152 393.819 648.177 394.286Z" fill="#8EC2F0"/>
<path d="M638.376 412.187L635.426 411.487L634.826 411.187C634.202 410.646 633.701 409.978 633.356 409.228C633.011 408.478 632.831 407.663 632.826 406.837C632.776 405.938 632.776 405.036 632.826 404.137V403.187C632.875 402.652 633.01 402.129 633.226 401.637H637.126C636.352 404.689 636.352 407.886 637.126 410.937C637.676 411.737 637.976 412.087 638.376 412.187Z" fill="#404758"/>
<path d="M635.426 411.487C634.148 411.063 633.038 410.244 632.256 409.147C631.474 408.05 631.061 406.734 631.076 405.387C631.001 404.505 631.001 403.618 631.076 402.737C631.076 402.737 631.076 401.987 631.076 401.837C631.036 400.749 631.352 399.678 631.976 398.786L637.777 392.136L638.127 391.836C639.291 391.537 640.512 391.537 641.677 391.836L643.527 392.286H644.177L646.627 392.836C645.566 392.687 644.485 392.917 643.577 393.486C642.453 394.078 641.424 394.837 640.527 395.736L639.227 397.286C639.016 397.515 638.831 397.766 638.677 398.036C637.927 399.171 637.416 400.447 637.176 401.787H633.276C633.06 402.278 632.925 402.802 632.876 403.337V404.287C632.826 405.186 632.826 406.088 632.876 406.987C632.881 407.813 633.062 408.628 633.406 409.378C633.751 410.128 634.252 410.796 634.876 411.337L635.426 411.487Z" fill="#404758"/>
<path d="M895.743 431.088C895.575 433.025 895.031 434.91 894.143 436.639L831.739 472.641L827.739 474.941C825.837 474.827 823.981 474.316 822.289 473.441C818.788 462.541 815.338 451.99 810.988 441.339C809.194 437.436 807.982 433.292 807.388 429.038C807.02 425.601 807.645 422.131 809.188 419.038C810.444 416.814 812.147 414.873 814.188 413.337C824.023 405.924 834.802 399.854 846.24 395.286L848.19 394.586C851.006 393.126 854.211 392.597 857.347 393.073C860.482 393.549 863.386 395.007 865.641 397.236L867.291 398.886C876.742 408.587 887.243 420.688 895.743 431.088Z" fill="#022F1D"/>
<path style="mix-blend-mode:screen" opacity="0.6" d="M895.743 431.088C895.574 433.025 895.031 434.91 894.143 436.639L831.739 472.641C837.139 448.29 842.44 418.538 846.34 395.286L848.29 394.586C851.106 393.126 854.311 392.597 857.447 393.073C860.582 393.549 863.486 395.007 865.741 397.236L867.391 398.886C876.742 408.587 887.243 420.688 895.743 431.088Z" fill="url(#paint0_linear_14_221)"/>
<path d="M827.839 475.192C825.907 475.07 824.019 474.56 822.288 473.691C818.738 462.791 815.238 452.14 810.938 441.589C809.165 437.665 807.969 433.505 807.387 429.239C807.003 425.801 807.629 422.326 809.187 419.238C810.443 416.985 812.145 415.012 814.188 413.438C824.028 406.004 834.826 399.932 846.29 395.386L848.29 394.636C851.152 393.178 854.4 392.654 857.575 393.138C860.751 393.623 863.694 395.091 865.991 397.336L867.641 399.037C878.892 410.687 890.193 424.038 895.943 431.239C895.782 433.215 895.221 435.137 894.293 436.889L827.839 475.192ZM822.538 473.291C824.101 474.073 825.798 474.548 827.539 474.692L893.743 436.439C894.583 434.783 895.109 432.986 895.293 431.139C889.543 424.088 878.292 410.687 867.091 399.087L865.441 397.386C863.2 395.219 860.339 393.804 857.256 393.338C854.173 392.872 851.022 393.378 848.24 394.786L846.29 395.536C834.86 400.066 824.095 406.121 814.288 413.538C812.271 415.059 810.572 416.962 809.287 419.138C807.767 422.238 807.16 425.706 807.537 429.139C808.126 433.356 809.321 437.465 811.088 441.339C815.538 451.79 819.038 462.441 822.538 473.291Z" fill="#232B3F"/>
<path d="M861.291 387.086C858.029 386.636 854.707 387.158 851.741 388.586C848.64 389.736 845.44 390.586 842.44 391.986C830.397 397.489 818.939 404.19 808.238 411.987C803.237 416.087 797.037 419.638 794.737 426.038C796.787 419.488 802.937 415.737 807.938 411.637C818.506 403.585 830.027 396.867 842.24 391.636C845.316 390.38 848.454 389.278 851.641 388.336C854.654 386.943 858.022 386.507 861.291 387.086Z" fill="white"/>
<path d="M703.13 367.684C714.795 364.704 726.122 360.532 736.933 355.234C746.933 350.233 758.934 342.183 763.834 332.232C761.175 337.68 757.269 342.425 752.434 346.083C742.875 353.499 732.072 359.154 720.532 362.784C714.831 364.784 708.981 366.184 703.13 367.684Z" fill="white"/>
<path d="M1058.25 722.432L1050.35 726.982L401.69 356.922L409.59 352.371L1058.25 722.432Z" fill="#E9E9F0"/>
<path d="M1147.97 781.348L1004.86 864.003L345.307 489.592L488.417 406.987L1147.97 781.348Z" fill="white" fill-opacity="0.11"/>
<path d="M1006.03 860.349L971.046 880.767L311.987 509.977L346.801 489L1006.03 860.349Z" fill="white" fill-opacity="0.11"/>
<path d="M888.043 286.529V288.529C888.036 289.125 887.935 289.716 887.743 290.279C887.39 291.412 886.792 292.453 885.993 293.33C885.574 293.768 885.104 294.155 884.593 294.48L863.991 306.33C863.637 306.582 863.223 306.737 862.791 306.78C862.519 306.831 862.24 306.821 861.972 306.752C861.704 306.683 861.455 306.556 861.241 306.38C860.768 305.823 860.519 305.111 860.541 304.38V302.38L888.043 286.529Z" fill="#FF6417"/>
<path d="M860.541 302.38V304.38C860.519 305.111 860.768 305.823 861.241 306.38C861.455 306.556 861.704 306.683 861.972 306.752C862.24 306.821 862.519 306.831 862.791 306.78C863.223 306.737 863.637 306.582 863.991 306.33L884.593 294.48C885.104 294.155 885.574 293.768 885.993 293.33C886.792 292.453 887.39 291.412 887.743 290.279C887.935 289.716 888.036 289.125 888.043 288.529V286.529C888.372 286.365 888.624 286.077 888.743 285.729V287.529C888.677 289.147 888.22 290.725 887.41 292.128C886.6 293.53 885.462 294.715 884.093 295.58L863.491 307.48C862.742 307.951 861.876 308.201 860.991 308.201C860.106 308.201 859.24 307.951 858.491 307.48C858.215 307.336 857.976 307.131 857.791 306.88C857.206 306.107 856.921 305.148 856.991 304.18V302.18C857.235 302.331 857.507 302.433 857.791 302.48C858.685 302.812 859.674 302.776 860.541 302.38Z" fill="#C13800"/>
<path d="M857.941 307.08C858.126 307.331 858.365 307.536 858.641 307.681L851.74 303.58L851.14 303.03C850.578 302.227 850.297 301.26 850.34 300.28V298.58L857.241 302.53V304.53C857.178 305.435 857.425 306.334 857.941 307.08Z" fill="#C13800"/>
<path d="M850.24 298.58V300.53C850.197 301.51 850.478 302.477 851.041 303.28L851.641 303.83C850.966 303.351 850.421 302.712 850.055 301.97C849.688 301.228 849.511 300.407 849.54 299.58V297.78C849.672 298.121 849.92 298.404 850.24 298.58Z" fill="#588800"/>
<path d="M741.733 370.785V372.785C741.727 373.38 741.626 373.971 741.433 374.535C741.082 375.679 740.465 376.724 739.633 377.585C739.244 378.034 738.789 378.422 738.283 378.735L717.682 390.636C717.313 390.85 716.905 390.987 716.482 391.036C716.21 391.086 715.93 391.076 715.662 391.007C715.395 390.938 715.145 390.811 714.932 390.636C714.445 390.087 714.194 389.368 714.232 388.636V386.636L741.733 370.785Z" fill="#BAD200"/>
<path d="M714.132 386.636V388.636C714.094 389.368 714.345 390.087 714.832 390.636C715.045 390.811 715.295 390.938 715.562 391.007C715.83 391.076 716.11 391.086 716.382 391.036C716.805 390.987 717.213 390.85 717.582 390.636L738.183 378.735C738.689 378.422 739.144 378.034 739.533 377.585C740.365 376.724 740.982 375.679 741.333 374.535C741.526 373.971 741.627 373.38 741.633 372.785V370.785C741.796 370.711 741.94 370.6 742.053 370.462C742.166 370.323 742.245 370.159 742.283 369.985V371.935C742.218 373.553 741.761 375.131 740.951 376.533C740.141 377.936 739.002 379.12 737.633 379.985L717.032 391.886C716.294 392.363 715.443 392.638 714.565 392.682C713.687 392.726 712.813 392.538 712.031 392.136C711.749 391.96 711.496 391.74 711.281 391.486C710.712 390.705 710.429 389.751 710.481 388.786V386.786L711.331 387.136C712.294 387.327 713.294 387.149 714.132 386.636Z" fill="#99B900"/>
<path d="M711.731 391.336C711.946 391.59 712.199 391.81 712.481 391.986L705.581 387.986L704.981 387.436C704.426 386.648 704.145 385.699 704.181 384.736V382.736L711.031 386.686V388.686C710.962 389.623 711.208 390.556 711.731 391.336Z" fill="#588800"/>
<path d="M703.831 382.685V384.686C703.794 385.649 704.075 386.598 704.631 387.386L705.231 387.936C704.556 387.456 704.011 386.817 703.645 386.075C703.278 385.334 703.102 384.512 703.131 383.685V381.885C703.25 382.234 703.501 382.521 703.831 382.685Z" fill="#588800"/>
<path d="M990.099 430.239V481.192L983.349 485.092L979.299 487.442L970.298 492.643V441.689L975.998 438.389L980.049 436.039L990.099 430.239Z" fill="#1F41BD"/>
<path d="M990.099 369.084V430.239L970.298 441.689V380.535L990.099 369.084Z" fill="#D6D3DE"/>
<path d="M990.099 338.532V369.084L970.298 380.535V349.983L990.099 338.532Z" fill="#428AC7"/>
<path d="M990.099 217.525V338.533L970.298 349.983V228.975L990.099 217.525Z" fill="#D6D3DE"/>
<path d="M990.099 217.525L970.298 228.975L950.447 217.525L970.298 206.074L990.099 217.525Z" fill="#E9E9F0"/>
<path d="M970.298 441.689V492.643L950.447 481.192V430.239L970.298 441.689Z" fill="#0A1D61"/>
<path d="M950.447 430.239V217.525L970.298 228.975V349.983V380.535V441.689L950.447 430.239Z" fill="#B2B2BD"/>
<path d="M970.248 228.975L975.248 226.025L980.249 223.125L985.249 220.275L990.249 217.525L985.249 220.525L980.249 223.375L975.248 226.225C973.648 227.175 971.748 228.075 970.248 228.975Z" fill="white"/>
<path d="M965.498 237.876V241.976L647.777 425.388V421.288L965.498 237.876Z" fill="#797F8D"/>
<path d="M965.498 237.876L647.777 421.288L637.877 415.588L955.597 232.176L965.498 237.876Z" fill="#B2B2BD"/>
<path d="M652.577 625.101V676.055L632.726 687.505V636.552L652.577 625.101Z" fill="#0A1D61"/>
<path d="M652.577 563.997V625.101L632.726 636.552V575.448L652.577 563.997Z" fill="#D6D3DE"/>
<path d="M652.577 533.395V563.997L632.726 575.448V544.846L652.577 533.395Z" fill="#0A1D61"/>
<path d="M652.577 412.387V533.395L632.726 544.846V423.888L652.577 412.387Z" fill="#D6D3DE"/>
<path d="M652.577 412.387L632.726 423.888L612.925 412.387L632.726 400.937L652.577 412.387Z" fill="#E9E9F0"/>
<path d="M632.726 636.552V687.505L612.925 676.055V625.101L632.726 636.552Z" fill="#0A1D61"/>
<path d="M612.925 625.101V412.387L632.726 423.888V544.846V575.448V636.552L612.925 625.101Z" fill="#B2B2BD"/>
<path d="M632.726 423.838L637.726 420.888L642.727 417.988L647.727 415.138L652.727 412.387L647.727 415.388L642.727 418.288L637.726 421.088L632.726 423.838Z" fill="white"/>
<path d="M955.547 232.126C957.297 232.976 958.948 233.926 960.548 234.876C962.148 235.826 963.848 236.826 965.548 237.876C963.798 237.026 962.148 236.076 960.548 235.176C958.948 234.276 957.147 233.226 955.547 232.126Z" fill="#797F8D"/>
<path d="M640.776 557.847L636.826 560.147L636.076 563.197L634.626 564.047L637.976 551.696L639.776 550.646L643.077 559.147L641.577 560.047L640.776 557.847ZM640.426 556.897L638.826 552.397L637.176 558.597L640.426 556.897Z" fill="white"/>
<path d="M978.649 362.034L974.699 364.284L973.899 367.384L972.448 368.234L975.799 355.884L977.599 354.834L980.949 363.334L979.399 364.184L978.649 362.034ZM978.299 361.084L976.649 356.534L975.049 362.934L978.299 361.084Z" fill="white"/>
<path d="M990.099 458.74V462.141L970.298 490.143V486.742L990.099 458.74Z" fill="#E9E9F0"/>
<path d="M990.099 445.289V448.69L970.298 476.741V473.291L990.099 445.289Z" fill="#E9E9F0"/>
<path d="M990.099 431.839V435.289L970.298 463.291V459.891L990.099 431.839Z" fill="#E9E9F0"/>
<path d="M980.049 436.039L970.298 449.89V446.44L975.998 438.389L980.049 436.039Z" fill="#E9E9F0"/>
<path d="M950.447 472.141V475.541L957.197 485.092L961.297 487.442L950.447 472.141Z" fill="#B2B2BD"/>
<path d="M950.447 458.74V462.141L970.298 490.143V486.742L950.447 458.74Z" fill="#B2B2BD"/>
<path d="M950.447 445.289V448.69L970.298 476.741V473.291L950.447 445.289Z" fill="#B2B2BD"/>
<path d="M950.447 431.839V435.289L970.298 463.291V459.891L950.447 431.839Z" fill="#B2B2BD"/>
<path d="M960.498 436.039L970.298 449.89V446.44L964.598 438.389L960.498 436.039Z" fill="#B2B2BD"/>
<path d="M652.577 667.004V670.454L645.827 679.955L641.727 682.355L652.577 667.004Z" fill="#E9E9F0"/>
<path d="M652.577 653.603V657.003L632.726 685.055V681.605L652.577 653.603Z" fill="#E9E9F0"/>
<path d="M652.577 640.152V643.603L632.726 671.604V668.204L652.577 640.152Z" fill="#E9E9F0"/>
<path d="M652.577 626.751V630.152L632.726 658.203V654.753L652.577 626.751Z" fill="#E9E9F0"/>
<path d="M642.527 630.952L632.726 644.753V641.352L638.426 633.302L642.527 630.952Z" fill="#E9E9F0"/>
<path d="M612.925 667.004V670.454L619.675 679.955L623.725 682.355L612.925 667.004Z" fill="#B2B2BD"/>
<path d="M612.925 653.603V657.003L632.726 685.055V681.605L612.925 653.603Z" fill="#B2B2BD"/>
<path d="M612.925 640.152V643.603L632.726 671.604V668.204L612.925 640.152Z" fill="#B2B2BD"/>
<path d="M612.925 626.751V630.152L632.726 658.203V654.753L612.925 626.751Z" fill="#B2B2BD"/>
<path d="M622.975 630.952L632.726 644.753V641.352L627.026 633.302L622.975 630.952Z" fill="#B2B2BD"/>
</g>
</g>
<defs>
<linearGradient id="paint0_linear_14_221" x1="828.439" y1="386.336" x2="859.691" y2="444.289" gradientUnits="userSpaceOnUse">
<stop stop-color="white"/>
<stop offset="1"/>
</linearGradient>
<clipPath id="clip0_14_221">
<rect width="979" height="738" fill="white"/>
</clipPath>
<clipPath id="clip1_14_221">
<rect width="170.628" height="101" fill="white" transform="translate(623 200)"/>
</clipPath>
<clipPath id="clip2_14_221">
<rect width="109.349" height="320.03" fill="white" transform="translate(794 60)"/>
</clipPath>
<clipPath id="clip3_14_221">
<rect width="685.567" height="520.159" fill="white" transform="translate(0 -10)"/>
</clipPath>
<clipPath id="clip4_14_221">
<rect width="688.245" height="785.546" fill="white" transform="translate(309.755 31.0625)"/>
</clipPath>
</defs>
</svg>
