<svg width="296" height="88" viewBox="0 0 296 88" fill="none" xmlns="http://www.w3.org/2000/svg">
<path d="M283.956 54.7537C283.323 53.5877 282.407 52.7049 281.207 52.1053C280.041 51.4723 278.659 51.1558 277.06 51.1558C274.295 51.1558 272.079 52.0719 270.414 53.9042C268.748 55.7032 267.915 58.1184 267.915 61.15C267.915 64.3815 268.781 66.9133 270.514 68.7456C272.279 70.5446 274.695 71.444 277.759 71.444C279.858 71.444 281.624 70.911 283.056 69.845C284.522 68.7789 285.588 67.2465 286.255 65.2476H275.411V58.9513H294V66.8967C293.367 69.0288 292.284 71.011 290.752 72.8432C289.253 74.6755 287.337 76.158 285.005 77.2907C282.673 78.4233 280.042 78.9897 277.11 78.9897C273.645 78.9897 270.547 78.2401 267.815 76.741C265.117 75.2085 263.001 73.0931 261.469 70.3947C259.97 67.6962 259.22 64.6147 259.22 61.15C259.22 57.6854 259.97 54.6038 261.469 51.9054C263.001 49.1736 265.117 47.0582 267.815 45.559C270.514 44.0266 273.595 43.2604 277.06 43.2604C281.257 43.2604 284.789 44.2765 287.654 46.3086C290.552 48.3408 292.468 51.1558 293.4 54.7537H283.956Z" fill="#0B1A51"/>
<path d="M254.475 78.7401H245.93L231.639 57.1026V78.7401H223.094V43.6604H231.639L245.93 65.3978V43.6604H254.475V78.7401Z" fill="#0B1A51"/>
<path d="M216.901 43.6604V78.7401H208.356V43.6604H216.901Z" fill="#0B1A51"/>
<path d="M193.851 78.7401L182.058 63.2491V78.7401H173.513V43.6604H182.058V59.0515L193.751 43.6604H203.795L190.203 60.8504L204.295 78.7401H193.851Z" fill="#0B1A51"/>
<path d="M158.804 78.7401L151.508 65.4978H149.46V78.7401H140.915V43.6604H155.256C158.021 43.6604 160.37 44.1435 162.302 45.1096C164.268 46.0757 165.734 47.4082 166.7 49.1072C167.666 50.7729 168.149 52.6385 168.149 54.704C168.149 57.036 167.483 59.1181 166.15 60.9504C164.851 62.7827 162.918 64.0819 160.353 64.8481L168.449 78.7401H158.804ZM149.46 59.4513H154.757C156.322 59.4513 157.488 59.0681 158.255 58.3019C159.054 57.5357 159.454 56.453 159.454 55.0538C159.454 53.7212 159.054 52.6718 158.255 51.9056C157.488 51.1394 156.322 50.7563 154.757 50.7563H149.46V59.4513Z" fill="#0B1A51"/>
<path d="M125.908 72.5437H112.816L110.717 78.7401H101.772L114.465 43.6604H124.359L137.052 78.7401H128.007L125.908 72.5437ZM123.709 65.9475L119.362 53.1049L115.064 65.9475H123.709Z" fill="#0B1A51"/>
<rect x="72.8875" y="3.06702" width="8.6599" height="8.6599" fill="#00CE7C"/>
<rect x="153.533" y="26.521" width="8.6599" height="8.6599" fill="#00CE7C"/>
<path d="M99.622 54.9539C99.622 56.986 99.1556 58.8516 98.2228 60.5506C97.29 62.2163 95.8575 63.5655 93.9253 64.5983C91.9931 65.631 89.5944 66.1474 86.7294 66.1474H81.4325V78.7401H72.8875V43.6604H86.7294C89.5278 43.6604 91.8931 44.1435 93.8253 45.1096C95.7575 46.0757 97.2067 47.4082 98.1728 49.1072C99.1389 50.8063 99.622 52.7551 99.622 54.9539ZM86.0798 59.3513C87.7122 59.3513 88.9282 58.9682 89.7277 58.202C90.5272 57.4358 90.927 56.353 90.927 54.9539C90.927 53.5547 90.5272 52.472 89.7277 51.7057C88.9282 50.9395 87.7122 50.5564 86.0798 50.5564H81.4325V59.3513H86.0798Z" fill="#0B1A51"/>
<path d="M135.13 35.1809L127.743 21.8374H125.694V35.1809H117.149V0H131.491C134.256 0 136.604 0.483054 138.537 1.44916C140.502 2.41527 141.968 3.74783 142.934 5.44684C143.9 7.11255 144.383 8.97813 144.383 11.0436C144.383 13.3756 143.717 15.4577 142.384 17.29C141.085 19.1223 139.153 20.4215 136.588 21.1877L144.783 35.1794L135.13 35.1809ZM125.694 15.7909H130.991C132.557 15.7909 133.723 15.4077 134.489 14.6415C135.288 13.8753 135.688 12.7926 135.688 11.3934C135.688 10.0608 135.288 9.01145 134.489 8.24523C133.723 7.479 132.557 7.09589 130.991 7.09589H125.694V15.7909Z" fill="#0B1A51"/>
<path d="M112.86 0V6.84604H103.566V35.1809H95.0207V6.84604H85.7261V0H112.86Z" fill="#0B1A51"/>
<path d="M81.3669 0V35.1809H72.8875V0H81.3669Z" fill="#0B1A51"/>
<path d="M72.8875 78.6609L72.8875 87.3208L-6.09319e-05 87.3208L-6.10352e-05 78.6609L72.8875 78.6609Z" fill="#0B1A51"/>
<path d="M62.6347 70.974C62.6347 75.1237 60.8641 74.6917 53.2223 74.6917H52.5908C38.535 73.2296 30.6549 73.3629 16.5981 74.9431C13.6393 74.9431 7.7581 73.3194 7.69773 72.5075C7.69773 72.5075 7.42703 70.4328 7.69764 65.5616C7.96825 60.6904 12.6081 64.3525 18.1653 58.7953C21.032 55.9286 24.844 55.5677 26.4637 55.5677H36.7465C39.7231 55.5677 42.4285 55.7449 45.9463 59.1568C49.4641 62.5688 50.2763 63.3064 55.3279 63.8476C60.3795 64.3889 62.6347 65.5333 62.6347 70.974Z" fill="#00CE7C"/>
<circle cx="20.3868" cy="73.2484" r="5.41244" fill="#0B1A51"/>
<circle cx="20.3868" cy="73.2484" r="5.41244" stroke="#0B1A51"/>
<circle cx="50.3358" cy="73.2484" r="5.41244" fill="#0B1A51"/>
<circle cx="50.3358" cy="73.2484" r="5.41244" stroke="#0B1A51"/>
</svg>
