<?xml version="1.0" standalone="no"?>
<!DOCTYPE svg PUBLIC "-//W3C//DTD SVG 20010904//EN"
 "http://www.w3.org/TR/2001/REC-SVG-20010904/DTD/svg10.dtd">
<svg version="1.0" xmlns="http://www.w3.org/2000/svg"
 width="1280.000000pt" height="975.000000pt" viewBox="0 0 1280.000000 975.000000"
 preserveAspectRatio="xMidYMid meet">
<g transform="translate(0.000000,975.000000) scale(0.100000,-0.100000)"
fill="#000000" stroke="none">
<path d="M12243 9726 c-39 -13 -87 -32 -105 -43 -18 -11 -1226 -827 -2683
-1814 -1458 -988 -3249 -2201 -3981 -2697 -732 -496 -1338 -904 -1345 -907 -8
-3 -736 547 -1729 1306 -943 722 -1737 1322 -1764 1335 -169 79 -369 41 -500
-95 -62 -66 -95 -129 -122 -237 -17 -69 -17 -72 4 -160 20 -79 36 -112 152
-304 71 -118 907 -1499 1858 -3068 1294 -2137 1740 -2866 1776 -2902 26 -27
73 -61 104 -78 72 -37 182 -66 224 -59 111 17 208 63 280 129 25 24 480 509
1010 1078 530 569 2361 2534 4068 4365 1708 1832 3131 3359 3163 3394 69 76
108 150 132 252 17 72 17 80 1 145 -48 197 -158 313 -348 365 -84 24 -105 23
-195 -5z"/>
</g>
</svg>
